<svg width="32" height="32" viewBox="0 0 32 32" fill="none" xmlns="http://www.w3.org/2000/svg">
<path fill-rule="evenodd" clip-rule="evenodd" d="M0.333344 1.33337C0.333344 0.781089 0.781059 0.333374 1.33334 0.333374H6.66668C7.1433 0.333374 7.55369 0.669759 7.64723 1.13712L8.82069 7.00004H30.6667C30.9647 7.00004 31.2472 7.13297 31.4372 7.3626C31.6271 7.59222 31.7048 7.89462 31.649 8.18737L29.5142 19.3815C29.3466 20.2256 28.8874 20.9838 28.217 21.5234C27.5494 22.0609 26.7146 22.3474 25.8578 22.3334H12.9155C12.0588 22.3474 11.224 22.0609 10.5563 21.5234C9.88622 20.984 9.42712 20.2261 9.25934 19.3824L7.03008 8.24441C7.0223 8.21344 7.01597 8.18189 7.01116 8.14985L5.84699 2.33337H1.33334C0.781059 2.33337 0.333344 1.88566 0.333344 1.33337ZM9.22099 9.00004L11.2208 18.9919C11.2971 19.3756 11.5058 19.7202 11.8105 19.9655C12.1152 20.2108 12.4964 20.3411 12.8875 20.3336L12.9067 20.3334H25.8667L25.8858 20.3336C26.2769 20.3411 26.6582 20.2108 26.9629 19.9655C27.2667 19.7209 27.4751 19.3775 27.5519 18.9951L27.5525 18.9919L29.458 9.00004H9.22099Z" fill="#0A0A0A"/>
<circle cx="13" cy="27.6667" r="2.33333" fill="#0A0A0A"/>
<circle cx="26.3333" cy="27.6667" r="2.33333" fill="#0A0A0A"/>
</svg>
