<svg width="20" height="20" viewBox="0 0 20 20" fill="none" xmlns="http://www.w3.org/2000/svg">
<rect x="0.5" y="0.5" width="19" height="19" rx="1.5" fill="white"/>
<path fill-rule="evenodd" clip-rule="evenodd" d="M10 5.0249C8.63312 5.0249 7.52502 6.133 7.52502 7.4999C7.52502 8.86681 8.63312 9.9749 10 9.9749C11.3669 9.9749 12.475 8.86681 12.475 7.4999C12.475 6.133 11.3669 5.0249 10 5.0249ZM8.47502 7.4999C8.47502 6.65767 9.15779 5.9749 10 5.9749C10.8423 5.9749 11.525 6.65767 11.525 7.4999C11.525 8.34214 10.8423 9.0249 10 9.0249C9.15779 9.0249 8.47502 8.34214 8.47502 7.4999ZM8.00002 11.0249C7.34361 11.0249 6.71409 11.2857 6.24994 11.7498C5.78578 12.214 5.52502 12.8435 5.52502 13.4999V14.4999C5.52502 14.7622 5.73769 14.9749 6.00002 14.9749C6.26236 14.9749 6.47502 14.7622 6.47502 14.4999V13.4999C6.47502 13.0954 6.63569 12.7076 6.92169 12.4216C7.20768 12.1356 7.59557 11.9749 8.00002 11.9749H12C12.4045 11.9749 12.7924 12.1356 13.0784 12.4216C13.3644 12.7076 13.525 13.0954 13.525 13.4999V14.4999C13.525 14.7622 13.7377 14.9749 14 14.9749C14.2624 14.9749 14.475 14.7622 14.475 14.4999V13.4999C14.475 12.8435 14.2143 12.214 13.7501 11.7498C13.286 11.2857 12.6564 11.0249 12 11.0249H8.00002Z" fill="#0A0A0A"/>
<rect x="0.5" y="0.5" width="19" height="19" rx="1.5" stroke="white"/>
</svg>
