<svg width="22" height="24" viewBox="0 0 22 24" fill="none" xmlns="http://www.w3.org/2000/svg">
<path d="M20.6641 23.8131H2.95947V0.186523H15.5464V5.48746H20.6641V23.8131Z" fill="#FCFCFC"/>
<path fill-rule="evenodd" clip-rule="evenodd" d="M2.77246 0H15.7329V5.30094H20.8505V24H2.77246V0ZM3.1459 0.373438V23.6266H20.4771V5.67437H15.3594V0.373438H3.1459Z" fill="#DEDFDF"/>
<path d="M10.9971 6.11914H1.02457C0.458717 6.11914 0 6.57825 0 7.1446V17.1257C0 17.6921 0.458717 18.1512 1.02457 18.1512H10.9971C11.5629 18.1512 12.0217 17.6921 12.0217 17.1257V7.1446C12.0217 6.57825 11.5629 6.11914 10.9971 6.11914Z" fill="#107C42"/>
<path d="M9.55998 16.6311H7.83425L2.72607 8.04199H4.48632L9.55998 16.6311Z" fill="white"/>
<path d="M2.72607 16.6311H4.45181L9.55998 8.04199H7.79974L2.72607 16.6311Z" fill="white"/>
<path d="M15.546 9.19629H12.6499V10.4815H15.546V9.19629Z" fill="#107C42"/>
<path d="M19.1251 9.19629H16.229V10.4815H19.1251V9.19629Z" fill="#107C42"/>
<path d="M15.546 11.1377H12.6499V12.4229H15.546V11.1377Z" fill="#107C42"/>
<path d="M19.1251 11.1377H16.229V12.4229H19.1251V11.1377Z" fill="#107C42"/>
<path d="M15.546 13.0791H12.6499V14.3643H15.546V13.0791Z" fill="#107C42"/>
<path d="M19.1251 13.0791H16.229V14.3643H19.1251V13.0791Z" fill="#107C42"/>
<path d="M20.5619 5.50439H15.6155C15.5773 5.50439 15.5464 5.47349 15.5464 5.4352V0.282752C15.5464 0.197981 15.6497 0.156415 15.7081 0.217669L20.6285 5.34742C20.6851 5.40649 20.6433 5.50466 20.5616 5.50466L20.5619 5.50439Z" fill="#FCFCFC"/>
<path fill-rule="evenodd" clip-rule="evenodd" d="M15.7328 0.51314V5.31737H20.341L15.7328 0.51314ZM20.8246 5.50522L21.0126 5.31737H20.8253C20.8126 5.28216 20.7922 5.24834 20.7631 5.21799L20.763 5.21787L15.8429 0.0884444C15.8428 0.0883779 15.8428 0.0883115 15.8427 0.0882452C15.6672 -0.0953017 15.3594 0.0303328 15.3594 0.282451V5.4349C15.3594 5.57616 15.4737 5.6908 15.6152 5.6908H20.1106L20.1103 5.69108H20.5613C20.6914 5.69108 20.7876 5.60891 20.8246 5.50522Z" fill="#DEDFDF"/>
</svg>
