<svg width="20" height="20" viewBox="0 0 20 20" fill="none" xmlns="http://www.w3.org/2000/svg">
<g clip-path="url(#clip0_86_11779)">
<path fill-rule="evenodd" clip-rule="evenodd" d="M9.99996 8.83332C9.35563 8.83332 8.83329 9.35566 8.83329 9.99999C8.83329 10.6443 9.35563 11.1667 9.99996 11.1667C10.6443 11.1667 11.1666 10.6443 11.1666 9.99999C11.1666 9.35566 10.6443 8.83332 9.99996 8.83332ZM7.66663 9.99999C7.66663 8.71133 8.71129 7.66666 9.99996 7.66666C11.2886 7.66666 12.3333 8.71133 12.3333 9.99999C12.3333 11.2887 11.2886 12.3333 9.99996 12.3333C8.71129 12.3333 7.66663 11.2887 7.66663 9.99999Z" fill="white"/>
<path fill-rule="evenodd" clip-rule="evenodd" d="M10 4.16667C9.84529 4.16667 9.69692 4.22812 9.58752 4.33752C9.47812 4.44692 9.41667 4.59529 9.41667 4.75V4.85149C9.41546 5.15297 9.32613 5.44751 9.15967 5.69886C8.99321 5.95021 8.75689 6.1474 8.47979 6.26616C8.43047 6.2873 8.37858 6.30149 8.32561 6.30841C8.07382 6.39658 7.80277 6.41832 7.53892 6.37048C7.235 6.31537 6.95456 6.17049 6.73376 5.9545L6.72916 5.95L6.69419 5.91498C6.64001 5.86074 6.57545 5.81749 6.50463 5.78813C6.43382 5.75878 6.35791 5.74367 6.28125 5.74367C6.20459 5.74367 6.12868 5.75878 6.05787 5.78813C5.98705 5.81749 5.92272 5.86051 5.86854 5.91475L5.86808 5.91521C5.81385 5.96938 5.77082 6.03372 5.74146 6.10453C5.71211 6.17535 5.697 6.25126 5.697 6.32792C5.697 6.40458 5.71211 6.48048 5.74146 6.5513C5.77082 6.62211 5.81385 6.68645 5.86808 6.74062L5.90786 6.7804C6.12384 7.0012 6.2687 7.28167 6.32381 7.58558C6.37782 7.88345 6.34316 8.19048 6.22435 8.46862C6.1161 8.75244 5.92657 8.99822 5.67928 9.1751C5.42698 9.35554 5.12624 9.45592 4.81614 9.46317L4.8025 9.46333H4.75C4.59529 9.46333 4.44692 9.52479 4.33752 9.63419C4.22812 9.74358 4.16667 9.89196 4.16667 10.0467C4.16667 10.2014 4.22812 10.3497 4.33752 10.4591C4.44692 10.5685 4.59529 10.63 4.75 10.63H4.85149C5.15297 10.6312 5.44751 10.7205 5.69886 10.887C5.94934 11.0529 6.14603 11.2881 6.26492 11.564C6.38863 11.8458 6.4254 12.1582 6.37048 12.4611C6.31537 12.765 6.17049 13.0454 5.9545 13.2662L5.95 13.2708L5.91498 13.3058C5.86074 13.36 5.81749 13.4246 5.78813 13.4954C5.75878 13.5662 5.74367 13.6421 5.74367 13.7188C5.74367 13.7954 5.75878 13.8713 5.78813 13.9421C5.81749 14.0129 5.86051 14.0773 5.91475 14.1315L5.91521 14.1319C5.96938 14.1862 6.03372 14.2292 6.10453 14.2585C6.17535 14.2879 6.25126 14.303 6.32792 14.303C6.40457 14.303 6.48048 14.2879 6.5513 14.2585C6.62212 14.2292 6.68645 14.1862 6.74062 14.1319L6.7804 14.0921C7.0012 13.8762 7.28167 13.7313 7.58558 13.6762C7.88345 13.6222 8.19048 13.6568 8.46861 13.7757C8.75244 13.8839 8.99822 14.0734 9.1751 14.3207C9.35554 14.573 9.45592 14.8738 9.46317 15.1839L9.46333 15.1975V15.25C9.46333 15.4047 9.52479 15.5531 9.63419 15.6625C9.74358 15.7719 9.89196 15.8333 10.0467 15.8333C10.2014 15.8333 10.3497 15.7719 10.4591 15.6625C10.5685 15.5531 10.63 15.4047 10.63 15.25V15.1508L10.63 15.1485C10.6312 14.847 10.7205 14.5525 10.887 14.3011C11.0529 14.0506 11.2882 13.8539 11.5641 13.735C11.8459 13.6114 12.1582 13.5746 12.4611 13.6295C12.765 13.6846 13.0454 13.8295 13.2662 14.0455L13.2708 14.05L13.3058 14.085C13.36 14.1393 13.4246 14.1825 13.4954 14.2119C13.5662 14.2412 13.6421 14.2563 13.7188 14.2563C13.7954 14.2563 13.8713 14.2412 13.9421 14.2119C14.0129 14.1825 14.0773 14.1395 14.1315 14.0852L14.1319 14.0848C14.1862 14.0306 14.2292 13.9663 14.2585 13.8955C14.2879 13.8246 14.303 13.7487 14.303 13.6721C14.303 13.5954 14.2879 13.5195 14.2585 13.4487C14.2292 13.3779 14.1862 13.3135 14.1319 13.2594L14.0921 13.2196C13.8762 12.9988 13.7313 12.7183 13.6762 12.4144C13.6213 12.1115 13.658 11.7992 13.7817 11.5174C13.9006 11.2415 14.0973 11.0062 14.3478 10.8403C14.5992 10.6739 14.8937 10.5845 15.1952 10.5833L15.1975 10.5833L15.25 10.5833C15.4047 10.5833 15.5531 10.5219 15.6625 10.4125C15.7719 10.3031 15.8333 10.1547 15.8333 10C15.8333 9.84529 15.7719 9.69692 15.6625 9.58752C15.5531 9.47812 15.4047 9.41667 15.25 9.41667H15.1508L15.1485 9.41666C14.847 9.41546 14.5525 9.32613 14.3011 9.15967C14.0498 8.99321 13.8526 8.75689 13.7338 8.47979C13.7127 8.43047 13.6985 8.37858 13.6916 8.3256C13.6034 8.07382 13.5817 7.80277 13.6295 7.53892C13.6846 7.235 13.8295 6.95456 14.0455 6.73376L14.05 6.72916L14.085 6.69419C14.1393 6.64001 14.1825 6.57545 14.2119 6.50463C14.2412 6.43382 14.2563 6.35791 14.2563 6.28125C14.2563 6.20459 14.2412 6.12868 14.2119 6.05787C14.1825 5.98705 14.1395 5.92272 14.0852 5.86854L14.0848 5.86808C14.0306 5.81385 13.9663 5.77082 13.8955 5.74146C13.8246 5.71211 13.7487 5.697 13.6721 5.697C13.5954 5.697 13.5195 5.71211 13.4487 5.74146C13.3779 5.77082 13.3135 5.81385 13.2594 5.86808L13.2196 5.90786C12.9988 6.12384 12.7183 6.2687 12.4144 6.32381C12.1115 6.37873 11.7992 6.34196 11.5173 6.21826C11.2415 6.09937 11.0062 5.90267 10.8403 5.65219C10.6739 5.40084 10.5845 5.1063 10.5833 4.80483L10.5833 4.8025V4.75C10.5833 4.59529 10.5219 4.44692 10.4125 4.33752C10.3031 4.22812 10.1547 4.16667 10 4.16667ZM8.76256 3.51256C9.09075 3.18437 9.53587 3 10 3C10.4641 3 10.9092 3.18437 11.2374 3.51256C11.5656 3.84075 11.75 4.28587 11.75 4.75V4.80104C11.7505 4.87468 11.7724 4.94661 11.813 5.00802C11.8539 5.06967 11.9118 5.11804 11.9798 5.14717L11.9855 5.14963C12.0549 5.18022 12.1317 5.18938 12.2063 5.17586C12.28 5.16249 12.3481 5.12758 12.402 5.07556L12.434 5.04358C12.5965 4.88087 12.7895 4.7518 13.0019 4.66373C13.2144 4.57566 13.4421 4.53033 13.6721 4.53033C13.9021 4.53033 14.1298 4.57566 14.3422 4.66373C14.5547 4.7518 14.7477 4.88088 14.9102 5.04358C15.0727 5.20602 15.2016 5.39886 15.2896 5.6111C15.3777 5.82355 15.423 6.05127 15.423 6.28125C15.423 6.51123 15.3777 6.73895 15.2896 6.9514C15.2016 7.16374 15.0726 7.35666 14.91 7.51914C14.9099 7.51922 14.9101 7.51907 14.91 7.51914L14.8778 7.55135C14.8258 7.60523 14.7908 7.67333 14.7775 7.74706C14.764 7.82161 14.7731 7.89849 14.8037 7.9678C14.8202 8.00516 14.8326 8.04404 14.841 8.08379C14.8686 8.12446 14.9039 8.15957 14.9453 8.18697C15.0067 8.22764 15.0786 8.24954 15.1523 8.25H15.25C15.7141 8.25 16.1592 8.43437 16.4874 8.76256C16.8156 9.09075 17 9.53587 17 10C17 10.4641 16.8156 10.9092 16.4874 11.2374C16.1592 11.5656 15.7141 11.75 15.25 11.75H15.199C15.1253 11.7505 15.0534 11.7724 14.992 11.813C14.9303 11.8539 14.882 11.9118 14.8528 11.9798L14.8504 11.9855C14.8198 12.0549 14.8106 12.1317 14.8241 12.2063C14.8375 12.28 14.8724 12.3481 14.9244 12.402L14.9564 12.434C14.9563 12.4339 14.9565 12.434 14.9564 12.434C15.119 12.5964 15.2482 12.7896 15.3363 13.0019C15.4243 13.2144 15.4697 13.4421 15.4697 13.6721C15.4697 13.9021 15.4243 14.1298 15.3363 14.3422C15.2482 14.5547 15.1191 14.7477 14.9564 14.9102L14.5442 14.4975L14.9569 14.9097C14.7943 15.0725 14.6013 15.2015 14.3889 15.2896C14.1764 15.3777 13.9487 15.423 13.7188 15.423C13.4888 15.423 13.2611 15.3777 13.0486 15.2896C12.8363 15.2016 12.6433 15.0726 12.4809 14.91C12.4808 14.9099 12.4809 14.9101 12.4809 14.91L12.4486 14.8778C12.3948 14.8257 12.3267 14.7908 12.2529 14.7775C12.1784 14.764 12.1015 14.7731 12.0322 14.8037L12.0265 14.8062C11.9585 14.8353 11.9005 14.8837 11.8597 14.9453C11.819 15.0067 11.7971 15.0786 11.7967 15.1523V15.25C11.7967 15.7141 11.6123 16.1592 11.2841 16.4874C10.9559 16.8156 10.5108 17 10.0467 17C9.58254 17 9.13742 16.8156 8.80923 16.4874C8.48104 16.1592 8.29667 15.7141 8.29667 15.25V15.2059C8.2939 15.1317 8.2694 15.0599 8.22617 14.9994C8.1819 14.9375 8.12005 14.8904 8.04864 14.8641C8.03711 14.8599 8.02571 14.8553 8.01447 14.8503C7.94516 14.8197 7.86827 14.8106 7.79373 14.8241C7.71999 14.8375 7.65189 14.8724 7.59801 14.9244L7.56604 14.9564C7.56597 14.9565 7.56612 14.9563 7.56604 14.9564C7.40356 15.119 7.21041 15.2482 6.99806 15.3363C6.78562 15.4243 6.55789 15.4697 6.32792 15.4697C6.09794 15.4697 5.87022 15.4243 5.65777 15.3363C5.44553 15.2483 5.25268 15.1194 5.09025 14.9569C4.92754 14.7943 4.79846 14.6013 4.7104 14.3889C4.62233 14.1764 4.577 13.9487 4.577 13.7188C4.577 13.4888 4.62233 13.2611 4.7104 13.0486C4.79846 12.8362 4.92754 12.6432 5.09025 12.4806L5.12223 12.4486C5.17425 12.3948 5.20916 12.3267 5.22253 12.2529C5.23604 12.1784 5.22692 12.1015 5.19633 12.0322L5.1938 12.0265C5.16467 11.9585 5.11634 11.9005 5.05468 11.8597C4.99327 11.819 4.92135 11.7971 4.84771 11.7967H4.75C4.28587 11.7967 3.84075 11.6123 3.51256 11.2841C3.18437 10.9559 3 10.5108 3 10.0467C3 9.58254 3.18437 9.13742 3.51256 8.80923C3.84075 8.48104 4.28587 8.29667 4.75 8.29667H4.79412C4.86832 8.2939 4.94012 8.2694 5.00057 8.22617C5.06245 8.1819 5.10959 8.12005 5.13585 8.04864C5.1401 8.03711 5.1447 8.02571 5.14966 8.01447C5.18025 7.94516 5.18938 7.86827 5.17586 7.79373C5.16249 7.72 5.12758 7.6519 5.07556 7.59801L5.04358 7.56604C4.88088 7.40351 4.7518 7.21051 4.66373 6.99806C4.57566 6.78562 4.53033 6.55789 4.53033 6.32792C4.53033 6.09794 4.57566 5.87022 4.66373 5.65777C4.75176 5.44542 4.88075 5.2525 5.04335 5.09002C5.20583 4.92742 5.39876 4.79842 5.6111 4.7104C5.82355 4.62233 6.05127 4.577 6.28125 4.577C6.51123 4.577 6.73895 4.62233 6.9514 4.7104C7.16384 4.79846 7.35685 4.92754 7.51937 5.09025L7.55135 5.12222C7.60523 5.17425 7.67333 5.20916 7.74706 5.22253C7.82161 5.23604 7.89849 5.22692 7.9678 5.19633C8.00516 5.17984 8.04404 5.16737 8.08379 5.15905C8.12446 5.13144 8.15957 5.09605 8.18697 5.05468C8.22764 4.99327 8.24954 4.92135 8.25 4.84771V4.75C8.25 4.28587 8.43437 3.84075 8.76256 3.51256Z" fill="white"/>
</g>
<defs>
<clipPath id="clip0_86_11779">
<rect width="14" height="14" fill="white" transform="translate(3 3)"/>
</clipPath>
</defs>
</svg>
