<svg width="16" height="16" viewBox="0 0 16 16" fill="none" xmlns="http://www.w3.org/2000/svg">
<path d="M8 0C3.58125 0 0 3.58125 0 8C0 12.4187 3.58125 16 8 16C12.4187 16 16 12.4187 16 8C16 3.58125 12.4187 0 8 0ZM7.25 4.75C7.25 4.3375 7.5875 4 8 4C8.4125 4 8.75 4.33594 8.75 4.75V8.75C8.75 9.16406 8.41406 9.5 8 9.5C7.58594 9.5 7.25 9.16563 7.25 8.75V4.75ZM8 12.5C7.4575 12.5 7.0175 12.06 7.0175 11.5175C7.0175 10.975 7.45719 10.535 8 10.535C8.54281 10.535 8.9825 10.975 8.9825 11.5175C8.98125 12.0594 8.54375 12.5 8 12.5Z" fill="#E30000"/>
</svg>
