<svg width="15" height="14" viewBox="0 0 15 14" fill="none" xmlns="http://www.w3.org/2000/svg">
<path fill-rule="evenodd" clip-rule="evenodd" d="M4.0299 3.4608C4.25774 3.68856 4.2578 4.05791 4.03004 4.28575C3.37754 4.93846 2.93324 5.76998 2.7533 6.67519C2.57336 7.58039 2.66586 8.51862 3.01911 9.37125C3.37237 10.2239 3.97051 10.9526 4.7379 11.4653C5.5053 11.9781 6.40749 12.2517 7.33041 12.2517C8.25332 12.2517 9.15551 11.9781 9.92291 11.4653C10.6903 10.9526 11.2884 10.2239 11.6417 9.37125C11.995 8.51862 12.0875 7.58039 11.9075 6.67519C11.7276 5.76998 11.2833 4.93846 10.6308 4.28575C10.403 4.05791 10.4031 3.68856 10.6309 3.4608C10.8588 3.23303 11.2281 3.23309 11.4559 3.46093C12.2715 4.27681 12.8269 5.31622 13.0518 6.44772C13.2767 7.57922 13.1611 8.75202 12.7195 9.81781C12.278 10.8836 11.5303 11.7945 10.571 12.4354C9.61179 13.0763 8.48405 13.4184 7.33041 13.4184C6.17676 13.4184 5.04902 13.0763 4.08978 12.4354C3.13053 11.7945 2.38286 10.8836 1.94129 9.81781C1.49972 8.75202 1.38409 7.57922 1.60902 6.44772C1.83395 5.31622 2.38933 4.27681 3.20494 3.46093C3.43271 3.23309 3.80206 3.23303 4.0299 3.4608Z" fill="white"/>
<path fill-rule="evenodd" clip-rule="evenodd" d="M7.33333 0.583344C7.6555 0.583344 7.91667 0.844511 7.91667 1.16668V7.00001C7.91667 7.32218 7.6555 7.58334 7.33333 7.58334C7.01117 7.58334 6.75 7.32218 6.75 7.00001V1.16668C6.75 0.844511 7.01117 0.583344 7.33333 0.583344Z" fill="white"/>
</svg>
