<svg width="32" height="32" viewBox="0 0 32 32" fill="none" xmlns="http://www.w3.org/2000/svg">
<path fill-rule="evenodd" clip-rule="evenodd" d="M0.333344 4C0.333344 3.44772 0.781059 3 1.33334 3H21.3333C21.8856 3 22.3333 3.44772 22.3333 4V21.3333C22.3333 21.8856 21.8856 22.3333 21.3333 22.3333H1.33334C0.781059 22.3333 0.333344 21.8856 0.333344 21.3333V4ZM2.33334 5V20.3333H20.3333V5H2.33334Z" fill="#0A0A0A"/>
<path fill-rule="evenodd" clip-rule="evenodd" d="M20.3333 10.6666C20.3333 10.1143 20.7811 9.66663 21.3333 9.66663H26.6667C26.9319 9.66663 27.1862 9.77198 27.3738 9.95952L31.3738 13.9595C31.5613 14.1471 31.6667 14.4014 31.6667 14.6666V21.3333C31.6667 21.8856 31.219 22.3333 30.6667 22.3333H21.3333C20.7811 22.3333 20.3333 21.8856 20.3333 21.3333V10.6666ZM22.3333 11.6666V20.3333H29.6667V15.0808L26.2525 11.6666H22.3333Z" fill="#0A0A0A"/>
<path fill-rule="evenodd" clip-rule="evenodd" d="M7.33333 22.3334C6.04467 22.3334 5 23.378 5 24.6667C5 25.9554 6.04467 27 7.33333 27C8.622 27 9.66667 25.9554 9.66667 24.6667C9.66667 23.378 8.622 22.3334 7.33333 22.3334ZM3 24.6667C3 22.2735 4.9401 20.3334 7.33333 20.3334C9.72657 20.3334 11.6667 22.2735 11.6667 24.6667C11.6667 27.0599 9.72657 29 7.33333 29C4.9401 29 3 27.0599 3 24.6667Z" fill="#0A0A0A"/>
<path fill-rule="evenodd" clip-rule="evenodd" d="M24.6667 22.3334C23.378 22.3334 22.3333 23.378 22.3333 24.6667C22.3333 25.9554 23.378 27 24.6667 27C25.9553 27 27 25.9554 27 24.6667C27 23.378 25.9553 22.3334 24.6667 22.3334ZM20.3333 24.6667C20.3333 22.2735 22.2734 20.3334 24.6667 20.3334C27.0599 20.3334 29 22.2735 29 24.6667C29 27.0599 27.0599 29 24.6667 29C22.2734 29 20.3333 27.0599 20.3333 24.6667Z" fill="#0A0A0A"/>
</svg>
