<svg width="16" height="16" viewBox="0 0 16 16" fill="none" xmlns="http://www.w3.org/2000/svg">
<path fill-rule="evenodd" clip-rule="evenodd" d="M9.52876 6.19526C9.78911 5.93491 10.2112 5.93491 10.4716 6.19526L13.8049 9.5286C14.0652 9.78894 14.0652 10.2111 13.8049 10.4714L10.4716 13.8047C10.2112 14.0651 9.78911 14.0651 9.52876 13.8047C9.26841 13.5444 9.26841 13.1223 9.52876 12.8619L12.3907 10L9.52876 7.13807C9.26841 6.87772 9.26841 6.45561 9.52876 6.19526Z" fill="white"/>
<path fill-rule="evenodd" clip-rule="evenodd" d="M2.66667 2C3.03486 2 3.33333 2.29848 3.33333 2.66667V7.33333C3.33333 7.86377 3.54405 8.37247 3.91912 8.74755C4.29419 9.12262 4.8029 9.33333 5.33333 9.33333H13.3333C13.7015 9.33333 14 9.63181 14 10C14 10.3682 13.7015 10.6667 13.3333 10.6667H5.33333C4.44928 10.6667 3.60143 10.3155 2.97631 9.69036C2.35119 9.06523 2 8.21739 2 7.33333V2.66667C2 2.29848 2.29848 2 2.66667 2Z" fill="white"/>
</svg>
