<svg width="140" height="120" viewBox="0 0 140 120" fill="none" xmlns="http://www.w3.org/2000/svg">
<path d="M105.563 17.7718C107.268 15.7476 107.019 12.7072 104.865 11.1694C95.194 4.26392 83.6556 0.363973 71.705 0.0242315C58.1528 -0.361045 44.8695 3.8549 34.02 11.985C23.1704 20.1152 15.3942 31.6802 11.9585 44.7953C8.5228 57.9105 9.63024 71.8027 15.1003 84.208C20.5704 96.6132 30.0807 106.8 42.0812 113.109C54.0818 119.417 67.8652 121.476 81.1853 118.948C94.5054 116.421 106.577 109.457 115.432 99.1906C123.241 90.1379 128.144 78.9884 129.568 67.1905C129.885 64.5632 127.808 62.3289 125.164 62.2223C122.519 62.1158 120.313 64.179 119.956 66.8012C118.645 76.4333 114.57 85.5186 108.176 92.9309C100.735 101.557 90.5913 107.409 79.3988 109.533C68.2062 111.657 56.6243 109.927 46.5405 104.626C36.4567 99.3251 28.4654 90.7653 23.8691 80.3414C19.2727 69.9176 18.3421 58.2443 21.229 47.2239C24.1159 36.2035 30.6502 26.4857 39.7668 19.6541C48.8834 12.8226 60.0451 9.27999 71.4327 9.60373C81.2178 9.88191 90.674 13.0007 98.6702 18.5287C100.847 20.0337 103.858 19.796 105.563 17.7718Z" fill="#E0E0E0"/>
<path d="M130 18.7285L71.344 77.6881L44.6821 50.8883" stroke="url(#paint0_linear_86_8428)" stroke-width="12" stroke-linecap="round" stroke-linejoin="round"/>
<defs>
<linearGradient id="paint0_linear_86_8428" x1="47.8566" y1="21.1233" x2="99.668" y2="71.1668" gradientUnits="userSpaceOnUse">
<stop stop-color="#DB0025"/>
<stop offset="1" stop-color="#910012"/>
</linearGradient>
</defs>
</svg>
