<svg width="14" height="14" viewBox="0 0 14 14" fill="none" xmlns="http://www.w3.org/2000/svg">
<path fill-rule="evenodd" clip-rule="evenodd" d="M3.69659 3.46083C3.92443 3.68859 3.92449 4.05794 3.69672 4.28578C3.04423 4.93849 2.59992 5.77001 2.41998 6.67522C2.24004 7.58042 2.33255 8.51865 2.6858 9.37128C3.03905 10.2239 3.63719 10.9527 4.40459 11.4654C5.17199 11.9781 6.07418 12.2517 6.99709 12.2517C7.92001 12.2517 8.8222 11.9781 9.5896 11.4654C10.357 10.9527 10.9551 10.2239 11.3084 9.37128C11.6616 8.51865 11.7541 7.58042 11.5742 6.67522C11.3943 5.77001 10.95 4.93849 10.2975 4.28578C10.0697 4.05794 10.0698 3.68859 10.2976 3.46083C10.5254 3.23306 10.8948 3.23312 11.1226 3.46096C11.9382 4.27684 12.4936 5.31625 12.7185 6.44775C12.9434 7.57925 12.8278 8.75205 12.3862 9.81784C11.9446 10.8836 11.197 11.7946 10.2377 12.4354C9.27848 13.0763 8.15074 13.4184 6.99709 13.4184C5.84345 13.4184 4.71571 13.0763 3.75646 12.4354C2.79722 11.7946 2.04955 10.8836 1.60798 9.81784C1.16641 8.75205 1.05078 7.57925 1.27571 6.44775C1.50063 5.31625 2.05601 4.27684 2.87163 3.46096C3.0994 3.23312 3.46875 3.23306 3.69659 3.46083Z" fill="#070A52"/>
<path fill-rule="evenodd" clip-rule="evenodd" d="M6.99999 0.583374C7.32216 0.583374 7.58332 0.844541 7.58332 1.16671V7.00004C7.58332 7.32221 7.32216 7.58337 6.99999 7.58337C6.67782 7.58337 6.41666 7.32221 6.41666 7.00004V1.16671C6.41666 0.844541 6.67782 0.583374 6.99999 0.583374Z" fill="#070A52"/>
</svg>
