<svg width="26" height="16" viewBox="0 0 26 16" fill="none" xmlns="http://www.w3.org/2000/svg">
<path fill-rule="evenodd" clip-rule="evenodd" d="M11 7.16676C11 3.76089 13.761 0.999878 17.1669 0.999878C20.5728 0.999878 23.3338 3.76089 23.3338 7.16676C23.3338 8.83761 22.6693 10.3533 21.5902 11.4639C21.566 11.4807 21.5429 11.4999 21.5213 11.5215C21.4997 11.5431 21.4805 11.5661 21.4637 11.5903C20.3531 12.6693 18.8376 13.3336 17.1669 13.3336C13.761 13.3336 11 10.5726 11 7.16676ZM21.8687 12.5759C20.6102 13.6708 18.966 14.3336 17.1669 14.3336C13.2087 14.3336 10 11.1249 10 7.16676C10 3.2086 13.2087 -0.00012207 17.1669 -0.00012207C21.1251 -0.00012207 24.3338 3.2086 24.3338 7.16676C24.3338 8.96597 23.6708 10.6103 22.5758 11.8689L25.8535 15.1466C26.0488 15.3419 26.0488 15.6584 25.8535 15.8537C25.6583 16.049 25.3417 16.049 25.1464 15.8537L21.8687 12.5759Z" fill="#9E9E9E"/>
<path d="M1 16V0H-1V16H1Z" fill="#E0E0E0" mask="url(#path-1-inside-1_1_2046)"/>
</svg>
