<svg width="20" height="20" viewBox="0 0 20 20" fill="none" xmlns="http://www.w3.org/2000/svg">
<rect x="0.5" y="0.5" width="19" height="19" rx="1.5" fill="white"/>
<g clip-path="url(#clip0_12_4422)">
<path fill-rule="evenodd" clip-rule="evenodd" d="M10 9C9.44772 9 9 9.44772 9 10C9 10.5523 9.44772 11 10 11C10.5523 11 11 10.5523 11 10C11 9.44772 10.5523 9 10 9ZM8 10C8 8.89543 8.89543 8 10 8C11.1046 8 12 8.89543 12 10C12 11.1046 11.1046 12 10 12C8.89543 12 8 11.1046 8 10Z" fill="#0A0A0A"/>
<path fill-rule="evenodd" clip-rule="evenodd" d="M10 5C9.86739 5 9.74022 5.05268 9.64645 5.14645C9.55268 5.24022 9.5 5.36739 9.5 5.5V5.58699C9.49897 5.8454 9.4224 6.09786 9.27972 6.31331C9.13704 6.52875 8.93448 6.69778 8.69697 6.79957C8.65469 6.81769 8.61021 6.82985 8.56481 6.83578C8.34899 6.91136 8.11666 6.92999 7.8905 6.88898C7.63 6.84175 7.38963 6.71756 7.20037 6.53243L7.19642 6.52857L7.16645 6.49855C7.12001 6.45206 7.06467 6.41499 7.00397 6.38983C6.94327 6.36466 6.87821 6.35171 6.8125 6.35171C6.74679 6.35171 6.68173 6.36466 6.62103 6.38983C6.56033 6.41499 6.50519 6.45187 6.45875 6.49836L6.45836 6.49875C6.41187 6.54519 6.37499 6.60033 6.34983 6.66103C6.32466 6.72173 6.31171 6.78679 6.31171 6.8525C6.31171 6.91821 6.32466 6.98327 6.34983 7.04397C6.37499 7.10467 6.41187 7.15981 6.45836 7.20625L6.49245 7.24035C6.67758 7.4296 6.80175 7.67 6.84898 7.9305C6.89527 8.18581 6.86556 8.44898 6.76373 8.68739C6.67094 8.93066 6.50849 9.14134 6.29652 9.29294C6.08027 9.44761 5.82249 9.53365 5.55669 9.53986L5.545 9.54H5.5C5.36739 9.54 5.24022 9.59268 5.14645 9.68645C5.05268 9.78022 5 9.90739 5 10.04C5 10.1726 5.05268 10.2998 5.14645 10.3936C5.24022 10.4873 5.36739 10.54 5.5 10.54H5.58699C5.8454 10.541 6.09786 10.6176 6.31331 10.7603C6.528 10.9025 6.6966 11.1041 6.79851 11.3406C6.90454 11.5821 6.93605 11.8499 6.88898 12.1095C6.84175 12.37 6.71756 12.6104 6.53243 12.7996L6.52857 12.8036L6.49855 12.8336C6.45206 12.88 6.41499 12.9353 6.38983 12.996C6.36466 13.0567 6.35171 13.1218 6.35171 13.1875C6.35171 13.2532 6.36466 13.3183 6.38983 13.379C6.41499 13.4397 6.45187 13.4948 6.49836 13.5413L6.49875 13.5416C6.54519 13.5881 6.60033 13.625 6.66103 13.6502C6.72173 13.6753 6.78679 13.6883 6.8525 13.6883C6.91821 13.6883 6.98327 13.6753 7.04397 13.6502C7.10467 13.625 7.15981 13.5881 7.20625 13.5416L7.24035 13.5075C7.4296 13.3224 7.67 13.1983 7.9305 13.151C8.18581 13.1047 8.44898 13.1344 8.68738 13.2363C8.93066 13.3291 9.14133 13.4915 9.29294 13.7035C9.44761 13.9197 9.53365 14.1775 9.53986 14.4433L9.54 14.455V14.5C9.54 14.6326 9.59268 14.7598 9.68645 14.8536C9.78022 14.9473 9.90739 15 10.04 15C10.1726 15 10.2998 14.9473 10.3936 14.8536C10.4873 14.7598 10.54 14.6326 10.54 14.5V14.415L10.54 14.413C10.541 14.1546 10.6176 13.9021 10.7603 13.6867C10.9025 13.472 11.1041 13.3034 11.3406 13.2015C11.5822 13.0955 11.8499 13.0639 12.1095 13.111C12.37 13.1583 12.6104 13.2824 12.7996 13.4676L12.8036 13.4714L12.8336 13.5014C12.88 13.5479 12.9353 13.585 12.996 13.6102C13.0567 13.6353 13.1218 13.6483 13.1875 13.6483C13.2532 13.6483 13.3183 13.6353 13.379 13.6102C13.4397 13.585 13.4948 13.5481 13.5413 13.5016L13.5416 13.5012C13.5881 13.4548 13.625 13.3997 13.6502 13.339C13.6753 13.2783 13.6883 13.2132 13.6883 13.1475C13.6883 13.0818 13.6753 13.0167 13.6502 12.956C13.625 12.8953 13.5881 12.8402 13.5416 12.7937L13.5075 12.7597C13.3224 12.5704 13.1983 12.33 13.151 12.0695C13.1039 11.8099 13.1355 11.5422 13.2415 11.3006C13.3434 11.0641 13.512 10.8625 13.7267 10.7203C13.9421 10.5776 14.1946 10.501 14.453 10.5L14.455 10.5L14.5 10.5C14.6326 10.5 14.7598 10.4473 14.8536 10.3536C14.9473 10.2598 15 10.1326 15 10C15 9.86739 14.9473 9.74022 14.8536 9.64645C14.7598 9.55268 14.6326 9.5 14.5 9.5H14.415L14.413 9.5C14.1546 9.49897 13.9021 9.4224 13.6867 9.27972C13.4712 9.13704 13.3022 8.93448 13.2004 8.69697C13.1823 8.65469 13.1702 8.61021 13.1642 8.5648C13.0886 8.34899 13.07 8.11666 13.111 7.8905C13.1583 7.63 13.2824 7.38963 13.4676 7.20037L13.4714 7.19643L13.5014 7.16645C13.5479 7.12001 13.585 7.06467 13.6102 7.00397C13.6353 6.94327 13.6483 6.87821 13.6483 6.8125C13.6483 6.74679 13.6353 6.68173 13.6102 6.62103C13.585 6.56033 13.5481 6.50519 13.5016 6.45875L13.5012 6.45836C13.4548 6.41187 13.3997 6.37499 13.339 6.34983C13.2783 6.32466 13.2132 6.31171 13.1475 6.31171C13.0818 6.31171 13.0167 6.32466 12.956 6.34983C12.8953 6.37499 12.8402 6.41187 12.7937 6.45836L12.7597 6.49245C12.5704 6.67758 12.33 6.80175 12.0695 6.84898C11.8099 6.89605 11.5421 6.86454 11.3006 6.75851C11.0641 6.6566 10.8625 6.488 10.7203 6.27331C10.5776 6.05786 10.501 5.8054 10.5 5.54699L10.5 5.545V5.5C10.5 5.36739 10.4473 5.24022 10.3536 5.14645C10.2598 5.05268 10.1326 5 10 5ZM8.93934 4.43934C9.22064 4.15804 9.60218 4 10 4C10.3978 4 10.7794 4.15804 11.0607 4.43934C11.342 4.72064 11.5 5.10217 11.5 5.5V5.54375C11.5004 5.60687 11.5192 5.66852 11.554 5.72116C11.589 5.774 11.6387 5.81546 11.697 5.84043L11.7019 5.84254C11.7613 5.86876 11.8272 5.87661 11.8911 5.86502C11.9543 5.85357 12.0127 5.82364 12.0588 5.77906L12.0862 5.75164C12.2256 5.61218 12.391 5.50154 12.5731 5.42605C12.7552 5.35057 12.9504 5.31171 13.1475 5.31171C13.3446 5.31171 13.5398 5.35057 13.7219 5.42605C13.904 5.50154 14.0694 5.61218 14.2087 5.75164C14.348 5.89087 14.4585 6.05616 14.5339 6.23809C14.6094 6.42019 14.6483 6.61538 14.6483 6.8125C14.6483 7.00962 14.6094 7.20481 14.5339 7.38691C14.4585 7.56892 14.3479 7.73428 14.2086 7.87355C14.2085 7.87362 14.2086 7.87349 14.2086 7.87355L14.181 7.90115C14.1364 7.94734 14.1064 8.00571 14.095 8.06891C14.0834 8.13281 14.0912 8.19871 14.1174 8.25812C14.1316 8.29014 14.1423 8.32346 14.1494 8.35753C14.1731 8.3924 14.2034 8.42249 14.2388 8.44597C14.2915 8.48083 14.3531 8.4996 14.4163 8.5H14.5C14.8978 8.5 15.2794 8.65804 15.5607 8.93934C15.842 9.22064 16 9.60217 16 10C16 10.3978 15.842 10.7794 15.5607 11.0607C15.2794 11.342 14.8978 11.5 14.5 11.5H14.4563C14.3931 11.5004 14.3315 11.5192 14.2788 11.554C14.226 11.589 14.1845 11.6387 14.1596 11.697L14.1575 11.7019C14.1312 11.7613 14.1234 11.8272 14.135 11.8911C14.1464 11.9543 14.1764 12.0126 14.2209 12.0588L14.2484 12.0862C14.2483 12.0862 14.2484 12.0863 14.2484 12.0862C14.3877 12.2255 14.4985 12.3911 14.5739 12.5731C14.6494 12.7552 14.6883 12.9504 14.6883 13.1475C14.6883 13.3446 14.6494 13.5398 14.5739 13.7219C14.4985 13.904 14.3878 14.0694 14.2484 14.2087L13.895 13.855L14.2488 14.2084C14.1094 14.3478 13.944 14.4585 13.7619 14.5339C13.5798 14.6094 13.3846 14.6483 13.1875 14.6483C12.9904 14.6483 12.7952 14.6094 12.6131 14.5339C12.4311 14.4585 12.2657 14.3479 12.1264 14.2086C12.1264 14.2085 12.1265 14.2086 12.1264 14.2086L12.0988 14.1809C12.0526 14.1364 11.9943 14.1064 11.9311 14.095C11.8672 14.0834 11.8013 14.0912 11.7419 14.1174L11.737 14.1196C11.6787 14.1446 11.629 14.186 11.594 14.2388C11.5592 14.2915 11.5404 14.3531 11.54 14.4163V14.5C11.54 14.8978 11.382 15.2794 11.1007 15.5607C10.8194 15.842 10.4378 16 10.04 16C9.64217 16 9.26064 15.842 8.97934 15.5607C8.69804 15.2794 8.54 14.8978 8.54 14.5V14.4622C8.53763 14.3986 8.51663 14.337 8.47957 14.2852C8.44163 14.2322 8.38861 14.1918 8.32741 14.1693C8.31752 14.1656 8.30775 14.1617 8.29812 14.1574C8.23871 14.1312 8.17281 14.1234 8.10891 14.135C8.04571 14.1464 7.98733 14.1764 7.94115 14.221L7.91375 14.2484C7.91369 14.2484 7.91381 14.2483 7.91375 14.2484C7.77448 14.3877 7.60892 14.4985 7.42691 14.5739C7.24481 14.6494 7.04962 14.6883 6.8525 14.6883C6.65538 14.6883 6.46019 14.6494 6.27809 14.5739C6.09617 14.4985 5.93087 14.388 5.79164 14.2488C5.65218 14.1094 5.54154 13.944 5.46605 13.7619C5.39057 13.5798 5.35171 13.3846 5.35171 13.1875C5.35171 12.9904 5.39057 12.7952 5.46605 12.6131C5.54154 12.431 5.65218 12.2656 5.79164 12.1262L5.81906 12.0988C5.86364 12.0527 5.89357 11.9943 5.90502 11.9311C5.91661 11.8672 5.90879 11.8013 5.88257 11.7419L5.8804 11.737C5.85544 11.6787 5.814 11.629 5.76116 11.594C5.70852 11.5592 5.64687 11.5404 5.58375 11.54H5.5C5.10217 11.54 4.72064 11.382 4.43934 11.1007C4.15804 10.8194 4 10.4378 4 10.04C4 9.64218 4.15804 9.26064 4.43934 8.97934C4.72064 8.69804 5.10217 8.54 5.5 8.54H5.53782C5.60142 8.53763 5.66296 8.51663 5.71478 8.47957C5.76782 8.44163 5.80822 8.38862 5.83073 8.32741C5.83437 8.31752 5.83832 8.30775 5.84257 8.29812C5.86879 8.23871 5.87661 8.17281 5.86502 8.10891C5.85356 8.04571 5.82364 7.98734 5.77905 7.94116L5.75164 7.91375C5.61218 7.77444 5.50154 7.60901 5.42605 7.42691C5.35057 7.24481 5.31171 7.04962 5.31171 6.8525C5.31171 6.65538 5.35057 6.46019 5.42605 6.27809C5.5015 6.09608 5.61207 5.93072 5.75145 5.79145C5.89072 5.65207 6.05608 5.5415 6.23809 5.46605C6.42019 5.39057 6.61538 5.35171 6.8125 5.35171C7.00962 5.35171 7.20481 5.39057 7.38691 5.46605C7.56901 5.54154 7.73444 5.65218 7.87375 5.79164L7.90115 5.81905C7.94734 5.86364 8.00571 5.89356 8.06891 5.90502C8.13281 5.91661 8.19871 5.90879 8.25812 5.88257C8.29014 5.86844 8.32346 5.85775 8.35754 5.85061C8.3924 5.82695 8.42249 5.79662 8.44597 5.76116C8.48083 5.70852 8.4996 5.64687 8.5 5.58375V5.5C8.5 5.10217 8.65804 4.72064 8.93934 4.43934Z" fill="#0A0A0A"/>
</g>
<rect x="0.5" y="0.5" width="19" height="19" rx="1.5" stroke="white"/>
<defs>
<clipPath id="clip0_12_4422">
<rect width="12" height="12" fill="white" transform="translate(4 4)"/>
</clipPath>
</defs>
</svg>
