<svg width="26" height="16" viewBox="0 0 26 16" fill="none" xmlns="http://www.w3.org/2000/svg">
<path fill-rule="evenodd" clip-rule="evenodd" d="M14.5 0C14.2239 0 14 0.223858 14 0.5V1H12C10.8954 1 10 1.89543 10 3V4V5V14C10 15.1046 10.8954 16 12 16H24C25.1046 16 26 15.1046 26 14V5V4V3C26 1.89543 25.1046 1 24 1H22V0.5C22 0.223858 21.7761 0 21.5 0C21.2239 0 21 0.223858 21 0.5V1H15V0.5C15 0.223858 14.7761 0 14.5 0ZM25 4V3C25 2.44772 24.5523 2 24 2H22V2.5C22 2.77614 21.7761 3 21.5 3C21.2239 3 21 2.77614 21 2.5V2H15V2.5C15 2.77614 14.7761 3 14.5 3C14.2239 3 14 2.77614 14 2.5V2H12C11.4477 2 11 2.44772 11 3V4H25ZM11 5V14C11 14.5523 11.4477 15 12 15H24C24.5523 15 25 14.5523 25 14V5H11ZM15 9V7H13V9H15ZM15 11V13H13V11H15ZM19 7H17V9H19V7ZM17 11H19V13H17V11ZM23 9V7H21V9H23ZM23 11V13H21V11H23Z" fill="#9E9E9E"/>
<path d="M1 16V0H-1V16H1Z" fill="#E0E0E0" mask="url(#path-1-inside-1_1_2480)"/>
</svg>
