<svg width="182" height="42" viewBox="0 0 182 42" fill="none" xmlns="http://www.w3.org/2000/svg">
<g clip-path="url(#clip0_1_2990)">
<path d="M34.9435 42L32.7101 25.8892C32.0076 29.2627 30.5264 32.4254 28.3846 35.1249C26.2429 37.8244 23.4998 39.9859 20.3743 41.4369C21.9875 41.8064 23.6373 41.993 25.2923 41.9932L34.9435 42Z" fill="#0A0A0A"/>
<path d="M11.9882 16.3227V9.08306C11.9882 7.62894 12.5658 6.23439 13.594 5.20617C14.6222 4.17795 16.0168 3.60031 17.4709 3.60031C18.925 3.60031 20.3196 4.17795 21.3478 5.20617C22.376 6.23439 22.9537 7.62894 22.9537 9.08306V13.2617L26.554 11.2266V9.08306C26.5705 7.87992 26.3477 6.6855 25.8986 5.56918C25.4496 4.45286 24.7832 3.43689 23.9382 2.58027C23.0932 1.72365 22.0865 1.04345 20.9764 0.579191C19.8663 0.114931 18.675 -0.124146 17.4718 -0.124146C16.2685 -0.124146 15.0773 0.114931 13.9672 0.579191C12.8571 1.04345 11.8503 1.72365 11.0053 2.58027C10.1603 3.43689 9.49395 4.45286 9.0449 5.56918C8.59585 6.6855 8.37308 7.87992 8.38952 9.08306V16.3227H11.9882Z" fill="url(#paint0_linear_1_2990)"/>
<path d="M31.4635 16.9485C31.4398 16.7763 31.3547 16.6185 31.2238 16.5041C31.0929 16.3898 30.9251 16.3266 30.7513 16.3261H26.554V23.3267C26.554 28.4143 22.3974 32.7337 17.3166 32.654C14.9341 32.6104 12.6639 31.6334 10.9944 29.9332C9.32492 28.2329 8.38953 25.9453 8.38948 23.5624V21.4256L11.9881 19.3906V23.4098C11.9881 26.264 14.1012 28.762 16.9418 29.0299C17.7035 29.1027 18.472 29.0155 19.198 28.7738C19.924 28.5321 20.5915 28.1413 21.1576 27.6265C21.7237 27.1117 22.1759 26.4842 22.4852 25.7843C22.7945 25.0844 22.954 24.3276 22.9536 23.5624V16.321H4.1922H4.16846C3.99877 16.3259 3.83629 16.3907 3.70991 16.5041C3.58354 16.6174 3.50144 16.7719 3.47824 16.94L0 41.9983H9.64782C12.321 42.0007 14.9721 41.5151 17.4709 40.5653C26.7524 37.0395 32.922 27.4443 31.4635 16.9485Z" fill="url(#paint1_linear_1_2990)"/>
<path d="M45.1081 37.7162C45.0581 37.7208 45.0078 37.7136 44.9612 37.695C44.9147 37.6764 44.8732 37.6471 44.8401 37.6094C44.8139 37.5646 44.8 37.5137 44.8 37.4618C44.8 37.41 44.8139 37.359 44.8401 37.3143L52.6835 18.3358C52.7119 18.2532 52.7667 18.1824 52.8393 18.134C52.9119 18.0855 52.9984 18.0623 53.0854 18.0678H55.575C55.6621 18.0623 55.7486 18.0855 55.8212 18.134C55.8938 18.1824 55.9485 18.2532 55.9769 18.3358L63.8203 37.3143C63.8405 37.3655 63.8497 37.4204 63.8475 37.4754C63.8475 37.645 63.7491 37.7162 63.5524 37.7162H60.181C60.0938 37.7223 60.007 37.6993 59.9343 37.6508C59.8616 37.6023 59.807 37.5311 59.7791 37.4482L58.3884 33.7818H50.2211L48.8288 37.4482C48.801 37.5308 48.7466 37.6018 48.6742 37.6502C48.6019 37.6987 48.5155 37.7219 48.4286 37.7162H45.1081ZM54.2895 22.9943L51.4795 30.4358H57.1013L54.2895 22.9943Z" fill="url(#paint2_linear_1_2990)"/>
<path d="M69.4422 36.8191C67.9875 35.9814 66.8065 34.7404 66.042 33.2459C65.2381 31.7106 64.8368 29.926 64.8379 27.8921C64.8379 25.8762 65.2528 24.0961 66.0827 22.5518C66.8697 21.0526 68.0673 19.8085 69.5355 18.965C71.0653 18.1022 72.7975 17.6632 74.5535 17.6931C76.6056 17.6931 78.3546 18.1527 79.8006 19.0718C81.249 19.9948 82.358 21.3638 82.96 22.9723C82.9802 23.0229 82.9895 23.0773 82.9871 23.1317C82.9925 23.2024 82.9705 23.2725 82.9256 23.3274C82.8808 23.3823 82.8166 23.4179 82.7463 23.4268L79.882 24.2307L79.7751 24.2561C79.7018 24.2597 79.6295 24.2377 79.5707 24.1937C79.5118 24.1498 79.4702 24.0867 79.4529 24.0153C79.0189 23.1554 78.3451 22.4397 77.5128 21.9548C76.6264 21.459 75.6233 21.2096 74.6078 21.2324C72.7333 21.2324 71.2636 21.8389 70.1985 23.052C69.1335 24.2652 68.5976 25.8892 68.5909 27.9243C68.5909 29.9412 69.1307 31.5518 70.2104 32.7558C71.2901 33.9599 72.7599 34.5625 74.6197 34.5636C76.0476 34.5636 77.2477 34.2018 78.22 33.4783C79.1923 32.7547 79.7678 31.7332 79.9464 30.4138L79.9736 30.2001H75.0623C75.0156 30.2052 74.9684 30.1996 74.9242 30.1837C74.8801 30.1678 74.8401 30.142 74.8074 30.1083C74.7747 30.0746 74.7501 30.0339 74.7355 29.9893C74.7209 29.9447 74.7167 29.8973 74.7231 29.8508V27.1968C74.718 27.151 74.7233 27.1046 74.7385 27.0611C74.7537 27.0177 74.7786 26.9782 74.8111 26.9456C74.8437 26.913 74.8832 26.8882 74.9267 26.8729C74.9702 26.8577 75.0165 26.8525 75.0623 26.8576H83.2534C83.2999 26.8511 83.3473 26.8553 83.3919 26.8699C83.4365 26.8845 83.4772 26.9091 83.5109 26.9418C83.5446 26.9745 83.5704 27.0145 83.5863 27.0587C83.6022 27.1029 83.6078 27.1501 83.6027 27.1968V29.4184C83.629 30.9691 83.2651 32.5017 82.5445 33.8751C81.8332 35.1894 80.7478 36.263 79.4258 36.9599C78.0521 37.7095 76.4128 38.0843 74.5078 38.0843C72.6027 38.0843 70.9142 37.6625 69.4422 36.8191Z" fill="url(#paint3_linear_1_2990)"/>
<path d="M90.2505 37.0735C89.2028 36.482 88.3546 35.5925 87.8136 34.5178C87.2597 33.352 86.9724 32.0775 86.9724 30.7869C86.9724 29.4962 87.2597 28.2218 87.8136 27.056C88.355 25.9812 89.2031 25.0911 90.2505 24.4986C91.3122 23.8926 92.5558 23.5896 93.9815 23.5896C95.3732 23.5896 96.5733 23.9152 97.5818 24.5664C98.6034 25.2349 99.3936 26.2027 99.8441 27.3375C100.343 28.5325 100.574 29.9243 100.539 31.5127C100.54 31.5604 100.53 31.6076 100.511 31.6513C100.491 31.695 100.463 31.7341 100.428 31.7661C100.392 31.7981 100.351 31.8223 100.305 31.8371C100.26 31.8519 100.212 31.8569 100.165 31.8519H90.6677C90.8271 32.8152 91.1974 33.5647 91.7785 34.1006C92.3596 34.6365 93.1047 34.9045 94.0137 34.9045C95.4043 34.9045 96.4218 34.3776 97.0663 33.3239C97.1094 33.2464 97.1795 33.1873 97.2633 33.1579C97.347 33.1286 97.4386 33.1309 97.5207 33.1645L99.9034 33.9938C100.136 34.0837 100.199 34.2346 100.092 34.4483C99.5573 35.569 98.6872 36.4954 97.6021 37.0989C96.4912 37.6959 95.2459 37.9984 93.9849 37.9774C92.5569 37.9774 91.3122 37.6761 90.2505 37.0735ZM96.822 29.2572C96.6615 28.4364 96.3314 27.7988 95.8317 27.3443C95.3177 26.8852 94.6464 26.6421 93.9577 26.6659C93.208 26.6406 92.4735 26.8808 91.8837 27.3443C91.2966 27.8373 90.8873 28.5093 90.7186 29.2572H96.822Z" fill="#0A0A0A"/>
<path d="M110.821 36.7666C109.572 35.878 108.69 34.5885 108.174 32.8983C108.155 32.8565 108.145 32.8105 108.147 32.7644C108.147 32.6219 108.237 32.5235 108.415 32.4693L111.198 31.8011L111.306 31.774C111.383 31.7733 111.457 31.7999 111.516 31.8489C111.575 31.898 111.614 31.9665 111.627 32.0419C111.983 32.9147 112.461 33.5524 113.06 33.9549C113.659 34.3573 114.457 34.5586 115.455 34.5586C116.455 34.5586 117.236 34.389 117.797 34.0498C118.357 33.7107 118.64 33.1838 118.645 32.4693C118.65 32.1485 118.582 31.8307 118.445 31.5407C118.308 31.2506 118.106 30.9961 117.854 30.7971C117.327 30.3596 116.52 29.9447 115.433 29.5524L113.691 28.9368C110.336 27.7937 108.659 25.8842 108.659 23.2081C108.647 22.1947 108.952 21.2029 109.531 20.3709C110.132 19.5139 110.952 18.8339 111.905 18.402C112.954 17.9193 114.097 17.6771 115.251 17.6931C116.928 17.6931 118.351 18.0888 119.521 18.8802C120.691 19.6716 121.517 20.8718 121.997 22.4806C122.016 22.5228 122.024 22.5686 122.023 22.6145C122.023 22.757 121.935 22.8554 121.756 22.9079L118.811 23.6575L118.704 23.6846C118.627 23.6857 118.553 23.6592 118.494 23.6101C118.435 23.5609 118.396 23.4923 118.383 23.4167C118.061 22.6321 117.651 22.0702 117.152 21.731C116.585 21.373 115.922 21.1956 115.251 21.2222C114.395 21.2222 113.708 21.3918 113.189 21.731C112.952 21.869 112.755 22.0672 112.619 22.3053C112.483 22.5435 112.412 22.8134 112.414 23.0877C112.416 23.3917 112.488 23.6911 112.625 23.9626C112.762 24.2341 112.959 24.4703 113.202 24.653C113.729 25.0905 114.573 25.5055 115.733 25.8978L117.125 26.3523C118.944 26.9594 120.278 27.7316 121.127 28.6688C121.976 29.6061 122.4 30.8684 122.399 32.4557C122.411 33.4877 122.102 34.498 121.516 35.3472C120.894 36.2299 120.042 36.9246 119.052 37.3551C117.922 37.8526 116.699 38.0991 115.465 38.0775C113.617 38.0866 112.07 37.6496 110.821 36.7666Z" fill="#0A0A0A"/>
<path d="M127.056 36.5648C126.265 35.6207 125.869 34.2199 125.869 32.3624V26.9543H123.834C123.786 26.9611 123.738 26.9567 123.693 26.9416C123.647 26.9264 123.606 26.9009 123.572 26.867C123.538 26.8331 123.512 26.7918 123.497 26.7463C123.482 26.7008 123.478 26.6524 123.485 26.6049V24.1968C123.478 24.1494 123.483 24.1012 123.498 24.056C123.513 24.0107 123.539 23.9696 123.573 23.9359C123.606 23.9022 123.648 23.8768 123.693 23.8618C123.738 23.8467 123.787 23.8424 123.834 23.8491H125.869V20.1301C125.862 20.0828 125.867 20.0345 125.882 19.9892C125.897 19.9439 125.922 19.9026 125.956 19.8688C125.989 19.8349 126.031 19.8093 126.076 19.794C126.121 19.7788 126.169 19.7742 126.217 19.7807H129.001C129.049 19.7742 129.097 19.7788 129.142 19.794C129.187 19.8093 129.228 19.8349 129.262 19.8688C129.296 19.9026 129.321 19.9439 129.336 19.9892C129.351 20.0345 129.356 20.0828 129.349 20.1301V23.8508H132.642C132.689 23.8454 132.736 23.8508 132.78 23.8665C132.824 23.8822 132.864 23.9078 132.897 23.9414C132.93 23.975 132.955 24.0156 132.969 24.0601C132.984 24.1047 132.988 24.152 132.981 24.1985V26.6151C132.988 26.6616 132.984 26.709 132.969 26.7536C132.954 26.7982 132.93 26.8389 132.897 26.8726C132.864 26.9063 132.825 26.9321 132.78 26.948C132.736 26.9639 132.689 26.9695 132.642 26.9644H129.344V32.5846C129.344 33.3341 129.469 33.8994 129.719 34.2804C129.97 34.6552 130.361 34.8418 130.906 34.8418C131.351 34.8418 131.699 34.619 131.949 34.1736C132.074 33.9582 132.235 33.9056 132.432 34.004L134.52 34.9418C134.578 34.9642 134.628 35.0049 134.661 35.0577C134.695 35.1105 134.711 35.1728 134.706 35.2352C134.7 35.3293 134.672 35.4207 134.626 35.5032C134.23 36.2881 133.617 36.9431 132.859 37.3907C132.149 37.7913 131.346 37.9989 130.531 37.9927C129.008 37.9825 127.85 37.5065 127.056 36.5648Z" fill="#0A0A0A"/>
<path d="M138.981 37.06C137.899 36.4694 137.008 35.583 136.411 34.5043C135.813 33.355 135.501 32.0788 135.501 30.7836C135.501 29.4883 135.813 28.2121 136.411 27.0628C137.007 25.9836 137.899 25.0966 138.981 24.5054C140.087 23.8904 141.372 23.5829 142.836 23.5829C144.3 23.5829 145.585 23.8904 146.691 24.5054C147.772 25.0972 148.663 25.9841 149.26 27.0628C149.859 28.2118 150.171 29.4881 150.171 30.7836C150.171 32.079 149.859 33.3553 149.26 34.5043C148.663 35.5825 147.772 36.4689 146.691 37.06C145.497 37.6676 144.176 37.9843 142.836 37.9843C141.496 37.9843 140.176 37.6676 138.981 37.06ZM145.539 33.7005C146.235 32.9509 146.583 31.9786 146.584 30.7836C146.585 29.5885 146.237 28.6157 145.539 27.865C144.843 27.1154 143.942 26.7406 142.836 26.7406C141.73 26.7406 140.826 27.1154 140.123 27.865C139.427 28.6145 139.08 29.5874 139.08 30.7836C139.08 31.9797 139.427 32.952 140.123 33.7005C140.819 34.45 141.724 34.8248 142.836 34.8248C143.949 34.8248 144.85 34.45 145.539 33.7005Z" fill="#0A0A0A"/>
<path d="M153.356 37.7163C153.308 37.7231 153.26 37.7188 153.215 37.7038C153.17 37.6887 153.129 37.6633 153.095 37.6295C153.061 37.5958 153.036 37.5546 153.021 37.5093C153.005 37.4641 153.001 37.4159 153.008 37.3686V24.1985C153.001 24.1513 153.005 24.1031 153.021 24.0578C153.036 24.0125 153.061 23.9713 153.095 23.9376C153.129 23.9038 153.17 23.8784 153.215 23.8634C153.26 23.8483 153.308 23.844 153.356 23.8508H155.872C156.122 23.8508 156.247 23.9662 156.247 24.1985L156.327 25.9385C156.772 25.2238 157.4 24.6413 158.147 24.2511C158.89 23.8607 159.717 23.6587 160.556 23.6626C160.87 23.6587 161.184 23.686 161.492 23.744C161.579 23.7589 161.657 23.8052 161.711 23.8741C161.766 23.9429 161.793 24.0295 161.788 24.1171V26.8746C161.793 26.9147 161.789 26.9555 161.777 26.9939C161.764 27.0322 161.742 27.0671 161.714 27.0957C161.685 27.1243 161.65 27.1459 161.612 27.1587C161.573 27.1716 161.533 27.1753 161.492 27.1697C161.273 27.167 161.055 27.1488 160.838 27.1154C160.602 27.0818 160.365 27.0642 160.127 27.0628C159.506 27.0579 158.891 27.1997 158.335 27.4766C157.784 27.7511 157.321 28.1733 156.997 28.696C156.652 29.2494 156.475 29.8909 156.488 30.5427V37.3686C156.495 37.4159 156.49 37.4641 156.475 37.5093C156.46 37.5546 156.435 37.5958 156.401 37.6295C156.367 37.6633 156.326 37.6887 156.281 37.7038C156.236 37.7188 156.188 37.7231 156.14 37.7163H153.356Z" fill="#0A0A0A"/>
<path d="M166.351 37.0735C165.304 36.4824 164.456 35.5927 163.916 34.5178C163.362 33.352 163.075 32.0775 163.075 30.7869C163.075 29.4962 163.362 28.2218 163.916 27.056C164.456 25.9809 165.304 25.0908 166.351 24.4986C167.413 23.8926 168.656 23.5896 170.082 23.5896C171.475 23.5896 172.675 23.9152 173.682 24.5664C174.705 25.2344 175.495 26.2024 175.945 27.3375C176.444 28.5325 176.676 29.9243 176.64 31.5127C176.64 31.5603 176.63 31.6073 176.611 31.6509C176.592 31.6944 176.564 31.7334 176.529 31.7654C176.494 31.7974 176.452 31.8216 176.407 31.8365C176.362 31.8514 176.314 31.8566 176.267 31.8519H166.77C166.932 32.8152 167.302 33.5647 167.881 34.1006C168.46 34.6365 169.205 34.9045 170.116 34.9045C171.509 34.9045 172.526 34.3776 173.169 33.3239C173.212 33.2464 173.282 33.1873 173.366 33.1579C173.449 33.1286 173.541 33.1309 173.623 33.1645L175.997 33.9938C176.228 34.0837 176.291 34.2346 176.184 34.4483C175.65 35.5693 174.78 36.4959 173.694 37.0989C172.585 37.6975 171.341 38.0017 170.08 37.9825C168.656 37.9791 167.413 37.6761 166.351 37.0735ZM172.924 29.2572C172.763 28.4364 172.432 27.7988 171.932 27.3443C171.421 26.8866 170.753 26.6436 170.067 26.6659C169.317 26.6405 168.581 26.8807 167.991 27.3443C167.405 27.838 166.997 28.5098 166.828 29.2572H172.924Z" fill="#0A0A0A"/>
<path d="M106.472 30.6496H103.166L104.211 27.3562H107.516L106.472 30.6496Z" fill="#0A0A0A"/>
<path d="M104.762 8.68283C104.548 8.59178 104.355 8.45985 104.192 8.29447C104.059 8.16253 103.955 8.00426 103.887 7.8298V8.74557H103.6V3.18311H103.887V5.83376C103.955 5.65962 104.059 5.50184 104.192 5.37079C104.355 5.20487 104.548 5.07236 104.762 4.98073C105.005 4.87344 105.268 4.81966 105.533 4.82302C105.868 4.81882 106.198 4.90998 106.483 5.08588C106.767 5.2624 106.997 5.5127 107.149 5.81002C107.309 6.12702 107.392 6.47694 107.392 6.83178C107.392 7.18662 107.309 7.53653 107.149 7.85354C106.997 8.15086 106.767 8.40116 106.483 8.57768C106.198 8.75358 105.868 8.84474 105.533 8.84054C105.268 8.8439 105.005 8.79012 104.762 8.68283ZM106.347 8.34365C106.588 8.19092 106.782 7.97427 106.907 7.71787C107.038 7.44014 107.105 7.137 107.105 6.83008C107.105 6.52316 107.038 6.22003 106.907 5.94229C106.78 5.6821 106.582 5.4638 106.335 5.31345C106.087 5.16309 105.802 5.08704 105.513 5.09436C105.219 5.0893 104.929 5.1671 104.677 5.31885C104.426 5.47059 104.221 5.69017 104.088 5.95247C103.951 6.2271 103.88 6.52988 103.88 6.83687C103.88 7.14385 103.951 7.44663 104.088 7.72126C104.221 7.98356 104.426 8.20314 104.677 8.35489C104.929 8.50664 105.219 8.58443 105.513 8.57938C105.807 8.58296 106.095 8.5017 106.344 8.34534L106.347 8.34365Z" fill="#616161"/>
<path d="M111.642 4.91968L109.086 10.399H108.779L109.578 8.6896L107.829 4.91968H108.143L109.736 8.3623L111.335 4.91968H111.642Z" fill="#616161"/>
<path d="M154.093 7.81799C154.066 7.48271 154.098 7.14537 154.186 6.82082C154.279 6.40306 154.427 5.99937 154.625 5.62014C154.953 5.03224 155.366 4.73885 155.863 4.73998C156.362 4.73998 156.635 5.02149 156.688 5.57944C156.711 5.92996 156.675 6.28186 156.582 6.6207C156.423 7.2821 156.192 7.77842 155.889 8.10968C155.586 8.44094 155.266 8.606 154.929 8.60487C154.432 8.60374 154.153 8.34145 154.093 7.81799ZM153.15 11.1911L153.776 8.60657C153.846 8.78845 153.951 8.95451 154.086 9.09498C154.295 9.27305 154.564 9.36359 154.837 9.34767C155.272 9.33945 155.691 9.18266 156.024 8.90335C156.628 8.4319 157.063 7.64501 157.33 6.5427C157.527 5.72642 157.509 5.09837 157.276 4.65858C157.181 4.45458 157.029 4.28286 156.837 4.1647C156.646 4.04654 156.424 3.98711 156.199 3.99379C155.869 3.99421 155.547 4.09216 155.273 4.27531C155.048 4.42164 154.845 4.60051 154.671 4.80612L154.841 4.13625H154.14L152.436 11.1826L153.15 11.1911Z" fill="#616161"/>
<path d="M157.539 9.18651L159.226 2.22156H159.945L159.32 4.81115C159.494 4.60861 159.692 4.42808 159.91 4.27357C160.188 4.09428 160.513 4.00162 160.844 4.00731C161.467 4.00731 161.826 4.26848 161.923 4.78233C161.967 5.1747 161.933 5.57201 161.821 5.95078L161.034 9.19669H160.295L161.066 6.00675C161.148 5.74241 161.174 5.46428 161.144 5.18934C161.08 4.91121 160.868 4.77159 160.508 4.77045C160.175 4.78322 159.856 4.91083 159.606 5.13168C159.304 5.37475 159.072 5.83264 158.909 6.50534L158.26 9.1899L157.539 9.18651Z" fill="#616161"/>
<path d="M163.48 7.14979C163.678 7.04845 163.894 6.9841 164.116 6.95985L164.568 6.89541C164.714 6.8753 164.858 6.84412 164.999 6.80214C165.134 6.76367 165.262 6.70658 165.381 6.63255L165.211 7.3109C165.161 7.55314 165.056 7.78069 164.904 7.97615C164.753 8.17161 164.558 8.32981 164.336 8.43866C164.094 8.56868 163.824 8.63902 163.549 8.64386C163.457 8.64767 163.365 8.63023 163.28 8.5929C163.195 8.55556 163.12 8.49932 163.061 8.42848C163 8.34592 162.96 8.24984 162.945 8.14851C162.93 8.04719 162.939 7.94364 162.973 7.84679C163.004 7.70188 163.066 7.56513 163.153 7.44517C163.24 7.3252 163.352 7.22463 163.48 7.14979ZM162.856 6.78518C162.53 7.06825 162.306 7.45093 162.22 7.87393C162.164 8.05098 162.145 8.2378 162.166 8.42239C162.186 8.60697 162.245 8.78523 162.338 8.94572C162.432 9.08869 162.562 9.2041 162.716 9.2801C162.869 9.3561 163.039 9.38995 163.21 9.37817C163.548 9.37699 163.881 9.29192 164.178 9.13057C164.47 8.98226 164.733 8.78297 164.955 8.5421C164.928 8.6973 164.931 8.85629 164.965 9.01016C164.992 9.10931 165.054 9.19544 165.139 9.25298C165.225 9.31052 165.328 9.33568 165.43 9.3239C165.512 9.32568 165.593 9.32114 165.674 9.31033C165.767 9.29367 165.859 9.27044 165.949 9.2408L166.1 8.61163C166.052 8.62181 166.008 8.62859 165.967 8.63368C165.927 8.63877 165.889 8.63368 165.857 8.63368C165.759 8.63368 165.7 8.60654 165.688 8.55228C165.667 8.48249 165.667 8.40839 165.688 8.3386L166.393 5.42339C166.51 4.94516 166.439 4.59072 166.181 4.36347C165.923 4.13623 165.54 4.0243 165.035 4.0243C164.596 4.02325 164.167 4.14867 163.798 4.38552C163.411 4.62973 163.134 5.0633 162.969 5.68625H163.648C163.713 5.47084 163.82 5.27035 163.963 5.09609C164.076 4.97524 164.214 4.8806 164.368 4.81878C164.521 4.75697 164.686 4.72948 164.852 4.73826C165.103 4.71669 165.353 4.78787 165.555 4.93837C165.698 5.06895 165.735 5.27755 165.664 5.56924C165.641 5.6844 165.598 5.79463 165.537 5.89485C165.494 5.96276 165.437 6.02008 165.369 6.06241C165.301 6.10474 165.225 6.13096 165.145 6.13905L163.958 6.30864C163.553 6.35967 163.17 6.52495 162.856 6.78518Z" fill="#616161"/>
<path d="M166.676 9.2187L167.902 4.1582H168.581L168.369 5.03158C168.524 4.79757 168.715 4.58881 168.933 4.41259C169.161 4.18944 169.463 4.05938 169.781 4.04797H169.848L170.017 4.06832L169.798 4.96544C169.761 4.9562 169.723 4.94996 169.685 4.94679C169.651 4.94679 169.612 4.94679 169.568 4.94679C169.392 4.94472 169.217 4.98025 169.055 5.05102C168.894 5.12179 168.75 5.22616 168.632 5.35719C168.375 5.62149 168.195 5.95019 168.109 6.30858L167.395 9.22208L166.676 9.2187Z" fill="#616161"/>
<path d="M169.385 9.22896L170.611 4.16847H171.323L171.153 4.88582C171.332 4.68457 171.531 4.50319 171.749 4.34484C172.006 4.16251 172.312 4.06256 172.627 4.05823C172.767 4.04694 172.908 4.06832 173.039 4.1207C173.17 4.17307 173.286 4.25502 173.38 4.3601C173.486 4.51142 173.554 4.68587 173.579 4.86886C173.773 4.62385 174.015 4.41983 174.289 4.26853C174.528 4.14066 174.795 4.07367 175.066 4.0735C175.642 4.0735 175.975 4.32279 176.065 4.81629C176.106 5.17429 176.076 5.53698 175.975 5.883L175.159 9.2527H174.41L175.257 5.73715C175.339 5.39798 175.324 5.16734 175.212 5.04184C175.151 4.97711 175.077 4.92641 174.995 4.89331C174.912 4.86021 174.824 4.8455 174.735 4.85021C174.432 4.8585 174.142 4.9794 173.923 5.18938C173.665 5.41324 173.472 5.78633 173.346 6.30866L172.632 9.2527H171.9L172.7 5.95083C172.775 5.70733 172.801 5.45143 172.776 5.19786C172.726 4.96214 172.551 4.84342 172.251 4.84173C171.937 4.85916 171.641 4.99135 171.418 5.21312C171.135 5.46072 170.909 5.91182 170.757 6.56982L170.109 9.23235L169.385 9.22896Z" fill="#616161"/>
<path d="M175.839 9.14756L176.038 8.32336H176.716L176.516 9.14756H175.839Z" fill="#616161"/>
<path d="M118.788 6.90559H117.301L118.63 4.31091L118.788 6.90559ZM116.01 9.40022L116.718 8.04352H118.876L118.954 9.40022H120.284L119.667 2.81006H118.283L114.73 9.40362L116.01 9.40022Z" fill="#616161"/>
<path d="M124.435 4.39903C124.677 4.3931 124.915 4.44669 125.131 4.55506C125.326 4.65986 125.479 4.82874 125.565 5.03329C125.643 5.20963 125.675 5.40265 125.658 5.59462C125.62 5.9114 125.563 6.22568 125.489 6.53583L124.854 9.39847H123.696L124.354 6.43408C124.412 6.22746 124.42 6.00997 124.376 5.79983C124.324 5.57258 124.151 5.46065 123.867 5.46065C123.724 5.45873 123.582 5.48809 123.452 5.54667C123.321 5.60525 123.205 5.69165 123.111 5.79983C122.881 6.07698 122.727 6.40879 122.663 6.76308L122.08 9.40356H120.949L122.405 2.83374H123.535L123.018 5.16387C123.204 4.91486 123.445 4.71181 123.721 4.57032C123.944 4.46254 124.188 4.40412 124.435 4.39903Z" fill="#616161"/>
<path d="M129.423 4.39905C129.611 4.38419 129.8 4.41184 129.977 4.47994C130.153 4.54804 130.311 4.65486 130.441 4.79249C130.667 5.05705 130.712 5.49458 130.578 6.10509L129.85 9.38831H128.689L129.345 6.42392C129.399 6.23204 129.412 6.03105 129.384 5.83375C129.328 5.58276 129.145 5.45897 128.831 5.45897C128.643 5.45851 128.458 5.50965 128.297 5.60682C128.136 5.70399 128.005 5.84348 127.917 6.01013C127.786 6.24119 127.693 6.49206 127.642 6.75292L127.057 9.39H125.928L127.005 4.52454H128.099L127.943 5.23681C128.095 5.0332 128.274 4.85072 128.475 4.69413C128.752 4.498 129.084 4.39469 129.423 4.39905Z" fill="#616161"/>
<path d="M137.592 8.06718C137.471 7.80036 137.465 7.42331 137.575 6.93603C137.645 6.52155 137.82 6.13199 138.084 5.80489C138.188 5.68141 138.318 5.5821 138.464 5.51386C138.611 5.44562 138.77 5.41009 138.932 5.40975C139.072 5.39702 139.212 5.42804 139.334 5.49851C139.455 5.56899 139.552 5.67545 139.61 5.80319C139.723 6.06775 139.728 6.44423 139.625 6.93264C139.555 7.34741 139.38 7.73734 139.117 8.06548C139.013 8.19003 138.884 8.29029 138.737 8.35916C138.591 8.42803 138.431 8.46383 138.269 8.46402C138.129 8.4761 137.988 8.44441 137.867 8.37332C137.746 8.30224 137.65 8.19526 137.592 8.06718ZM140.685 5.10279C140.434 4.59403 139.934 4.32948 139.19 4.33117C138.846 4.32139 138.503 4.38551 138.186 4.51921C137.869 4.6529 137.584 4.85307 137.351 5.10619C136.873 5.61831 136.543 6.25081 136.396 6.93603C136.237 7.65169 136.286 8.2639 136.539 8.77097C136.792 9.27803 137.292 9.53241 138.038 9.53241C138.381 9.54245 138.722 9.47944 139.038 9.34756C139.354 9.21569 139.639 9.01798 139.873 8.76758C140.354 8.25427 140.684 7.61905 140.829 6.93094C140.985 6.22885 140.937 5.61947 140.685 5.10279Z" fill="#616161"/>
<path d="M142.569 8.0604C142.45 7.79584 142.444 7.4188 142.552 6.92926C142.626 6.51464 142.805 6.1258 143.071 5.7998C143.176 5.67636 143.306 5.57697 143.452 5.50847C143.598 5.43997 143.758 5.40398 143.919 5.40297C144.059 5.39038 144.2 5.42165 144.321 5.49244C144.443 5.56323 144.54 5.67005 144.598 5.79811C144.711 6.06266 144.716 6.43915 144.613 6.92756C144.542 7.34173 144.367 7.73104 144.104 8.0587C144.001 8.18329 143.871 8.28369 143.725 8.35283C143.578 8.42198 143.418 8.45819 143.256 8.45893C143.114 8.47309 142.972 8.4422 142.848 8.37067C142.725 8.29913 142.628 8.19057 142.569 8.0604ZM145.663 5.09771C145.412 4.58216 144.913 4.32496 144.167 4.32609C143.823 4.31608 143.481 4.3801 143.164 4.51381C142.846 4.64752 142.562 4.8478 142.329 5.1011C141.851 5.61342 141.521 6.24584 141.374 6.93095C141.217 7.64661 141.264 8.25825 141.516 8.76588C141.768 9.27352 142.268 9.52733 143.015 9.52733C143.358 9.53748 143.699 9.47452 144.015 9.34264C144.332 9.21076 144.616 9.01299 144.85 8.76249C145.332 8.25005 145.663 7.61447 145.807 6.92586C145.963 6.22264 145.915 5.61326 145.663 5.09771Z" fill="#616161"/>
<path d="M146.07 9.35436L147.525 2.78455H148.639L147.852 6.33571L149.672 4.50077H151.076L149.146 6.36623L150.06 9.35097H148.692L148.115 7.26844L147.523 7.8179L147.184 9.34418L146.07 9.35436Z" fill="#616161"/>
<path d="M134.373 4.47543C134.506 4.54915 134.621 4.65038 134.712 4.77235C134.802 4.89432 134.865 5.03419 134.897 5.1826L135.055 4.47373H136.191L135.174 9.10855C135.084 9.62497 134.875 10.1133 134.563 10.5348C134.111 11.0842 133.416 11.3595 132.479 11.3607C131.911 11.3607 131.477 11.2369 131.173 10.9927C130.87 10.7485 130.753 10.3805 130.82 9.89374H132.084C132.074 10.008 132.104 10.1222 132.17 10.216C132.269 10.333 132.464 10.3855 132.757 10.3855C132.939 10.3964 133.12 10.3597 133.284 10.2792C133.447 10.1986 133.586 10.0768 133.688 9.92596C133.867 9.62036 133.99 9.28481 134.049 8.93557L134.119 8.62523C133.989 8.80304 133.833 8.95978 133.656 9.0899C133.376 9.28407 133.042 9.38442 132.701 9.3765C132.135 9.3765 131.729 9.15603 131.489 8.7168C131.248 8.27757 131.21 7.68063 131.378 6.92766C131.515 6.25067 131.824 5.62039 132.275 5.09781C132.464 4.86731 132.701 4.68132 132.969 4.55319C133.238 4.42506 133.531 4.35796 133.829 4.35671C134.017 4.3538 134.203 4.39443 134.373 4.47543ZM133.976 7.98758C134.246 7.6831 134.423 7.30755 134.485 6.90561C134.588 6.44094 134.58 6.08763 134.46 5.84569C134.405 5.72919 134.316 5.632 134.205 5.56692C134.094 5.50184 133.966 5.47191 133.837 5.48108C133.435 5.48108 133.112 5.6925 132.867 6.11533C132.723 6.37494 132.619 6.65521 132.56 6.94631C132.499 7.19468 132.485 7.45239 132.518 7.70606C132.582 8.11816 132.813 8.32506 133.213 8.32506C133.357 8.32231 133.498 8.29105 133.629 8.2331C133.76 8.17516 133.878 8.0917 133.976 7.98758Z" fill="#616161"/>
</g>
<defs>
<linearGradient id="paint0_linear_1_2990" x1="11.0995" y1="5.31653" x2="33.2578" y2="23.5624" gradientUnits="userSpaceOnUse">
<stop stop-color="#DB0025"/>
<stop offset="1" stop-color="#910012"/>
</linearGradient>
<linearGradient id="paint1_linear_1_2990" x1="1.17863" y1="17.364" x2="23.3369" y2="35.6099" gradientUnits="userSpaceOnUse">
<stop stop-color="#DB0025"/>
<stop offset="1" stop-color="#910012"/>
</linearGradient>
<linearGradient id="paint2_linear_1_2990" x1="45.5088" y1="18.8652" x2="61.2696" y2="29.0625" gradientUnits="userSpaceOnUse">
<stop stop-color="#DB0025"/>
<stop offset="1" stop-color="#910012"/>
</linearGradient>
<linearGradient id="paint3_linear_1_2990" x1="65.5362" y1="18.52" x2="81.53" y2="28.3443" gradientUnits="userSpaceOnUse">
<stop stop-color="#DB0025"/>
<stop offset="1" stop-color="#910012"/>
</linearGradient>
<clipPath id="clip0_1_2990">
<rect width="181.308" height="42" fill="white"/>
</clipPath>
</defs>
</svg>
