<svg width="156" height="36" viewBox="0 0 156 36" fill="none" xmlns="http://www.w3.org/2000/svg">
<g clip-path="url(#clip0_4_616)">
<path d="M29.9518 36.0001L28.0374 22.1908C27.4353 25.0824 26.1657 27.7933 24.3299 30.1071C22.4941 32.421 20.1429 34.2737 17.4639 35.5175C18.8467 35.8341 20.2607 35.994 21.6793 35.9942L29.9518 36.0001Z" fill="#C2C2C2"/>
<path d="M10.2757 13.991V7.78557C10.2757 6.53918 10.7708 5.34385 11.6522 4.46252C12.5335 3.58119 13.7288 3.08606 14.9752 3.08606C16.2216 3.08606 17.4169 3.58119 18.2983 4.46252C19.1796 5.34385 19.6747 6.53918 19.6747 7.78557V11.3673L22.7607 9.62293V7.78557C22.7748 6.75431 22.5839 5.73052 22.199 4.77367C21.8141 3.81682 21.2429 2.94599 20.5186 2.21174C19.7943 1.4775 18.9314 0.894473 17.9799 0.496536C17.0284 0.0985992 16.0073 -0.106323 14.9759 -0.106323C13.9446 -0.106323 12.9235 0.0985992 11.972 0.496536C11.0205 0.894473 10.1576 1.4775 9.43327 2.21174C8.70899 2.94599 8.13781 3.81682 7.75291 4.77367C7.36801 5.73052 7.17706 6.75431 7.19116 7.78557V13.991H10.2757Z" fill="#9E9E9E"/>
<path d="M26.9687 14.5273C26.9484 14.3797 26.8754 14.2445 26.7632 14.1464C26.6511 14.0484 26.5072 13.9942 26.3582 13.9939H22.7606V19.9943C22.7606 24.3552 19.1978 28.0575 14.8428 27.9892C12.8006 27.9518 10.8548 27.1144 9.42378 25.6571C7.99279 24.1997 7.19103 22.2389 7.19099 20.1964V18.3649L10.2755 16.6205V20.0656C10.2755 22.512 12.0867 24.6532 14.5215 24.8828C15.1744 24.9452 15.8331 24.8705 16.4554 24.6633C17.0777 24.4561 17.6498 24.1212 18.1351 23.6799C18.6203 23.2386 19.0079 22.7008 19.273 22.1009C19.5381 21.501 19.6749 20.8523 19.6746 20.1964V13.9895H3.59331H3.57296C3.42752 13.9936 3.28825 14.0492 3.17993 14.1464C3.0716 14.2435 3.00124 14.3759 2.98134 14.5201L0 35.9985H8.26956C10.5609 36.0006 12.8333 35.5844 14.975 34.7703C22.9306 31.7482 28.2188 23.5237 26.9687 14.5273Z" fill="#9E9E9E"/>
<path d="M38.7123 32.3282C38.6695 32.3322 38.6263 32.326 38.5864 32.3101C38.5465 32.2942 38.5109 32.269 38.4826 32.2367C38.4601 32.1983 38.4482 32.1547 38.4482 32.1102C38.4482 32.0657 38.4601 32.0221 38.4826 31.9837L45.2055 15.7164C45.2299 15.6457 45.2768 15.5849 45.339 15.5435C45.4012 15.502 45.4754 15.482 45.55 15.4868H47.6839C47.7586 15.482 47.8327 15.502 47.8949 15.5435C47.9572 15.5849 48.0041 15.6457 48.0284 15.7164L54.7513 31.9837C54.7686 32.0276 54.7766 32.0747 54.7746 32.1218C54.7746 32.2672 54.6903 32.3282 54.5217 32.3282H51.6319C51.5572 32.3335 51.4828 32.3137 51.4205 32.2722C51.3581 32.2306 51.3113 32.1696 51.2874 32.0986L50.0954 28.9559H43.0949L41.9015 32.0986C41.8776 32.1693 41.831 32.2302 41.769 32.2717C41.7069 32.3132 41.6329 32.3331 41.5584 32.3282H38.7123ZM46.5821 19.7095L44.1735 26.0879H48.9922L46.5821 19.7095Z" fill="#9E9E9E"/>
<path d="M59.5701 31.5593C58.3232 30.8413 57.3109 29.7775 56.6556 28.4965C55.9666 27.1805 55.6226 25.6509 55.6235 23.9075C55.6235 22.1797 55.9792 20.6539 56.6905 19.3301C57.3651 18.0451 58.3916 16.9788 59.65 16.2557C60.9613 15.5162 62.4461 15.1399 63.9512 15.1655C65.7101 15.1655 67.2093 15.5595 68.4487 16.3473C69.6902 17.1384 70.6407 18.3119 71.1568 19.6906C71.1741 19.734 71.182 19.7806 71.18 19.8272C71.1846 19.8878 71.1657 19.9479 71.1273 19.9949C71.0889 20.042 71.0339 20.0725 70.9736 20.0802L68.5185 20.7692L68.4269 20.791C68.364 20.7941 68.302 20.7752 68.2516 20.7375C68.2012 20.6998 68.1655 20.6457 68.1507 20.5846C67.7787 19.8476 67.2011 19.2341 66.4878 18.8184C65.7279 18.3935 64.8682 18.1797 63.9978 18.1992C62.391 18.1992 61.1312 18.7191 60.2184 19.7589C59.3055 20.7987 58.8462 22.1908 58.8404 23.9351C58.8404 25.664 59.3031 27.0444 60.2286 28.0765C61.154 29.1085 62.4138 29.625 64.0079 29.626C65.2319 29.626 66.2605 29.3159 67.0939 28.6957C67.9273 28.0755 68.4206 27.1999 68.5737 26.069L68.597 25.8859H64.3873C64.3473 25.8902 64.3068 25.8854 64.269 25.8718C64.2311 25.8581 64.1969 25.836 64.1688 25.8072C64.1408 25.7783 64.1197 25.7434 64.1072 25.7051C64.0947 25.6669 64.0911 25.6263 64.0966 25.5864V23.3115C64.0922 23.2723 64.0967 23.2326 64.1098 23.1953C64.1228 23.158 64.1441 23.1242 64.172 23.0962C64.2 23.0683 64.2338 23.047 64.2711 23.034C64.3084 23.0209 64.3481 23.0164 64.3873 23.0208H71.4082C71.4481 23.0153 71.4887 23.0189 71.527 23.0314C71.5652 23.0439 71.6001 23.065 71.629 23.093C71.6578 23.1211 71.6799 23.1553 71.6936 23.1932C71.7072 23.2311 71.712 23.2715 71.7077 23.3115V25.2158C71.7302 26.545 71.4183 27.8586 70.8006 29.0358C70.191 30.1624 69.2606 31.0826 68.1274 31.6799C66.95 32.3224 65.5449 32.6437 63.912 32.6437C62.2791 32.6437 60.8318 32.2822 59.5701 31.5593Z" fill="#9E9E9E"/>
<path d="M77.406 31.7773C76.508 31.2704 75.7809 30.5079 75.3172 29.5868C74.8425 28.5875 74.5962 27.4951 74.5962 26.3888C74.5962 25.2825 74.8425 24.1901 75.3172 23.1909C75.7812 22.2696 76.5082 21.5068 77.406 20.9989C78.316 20.4794 79.3819 20.2197 80.6039 20.2197C81.7969 20.2197 82.8255 20.4988 83.6899 21.057C84.5656 21.63 85.2429 22.4596 85.6291 23.4322C86.0564 24.4565 86.2551 25.6494 86.225 27.011C86.2253 27.0519 86.2169 27.0923 86.2004 27.1298C86.1839 27.1672 86.1597 27.2007 86.1294 27.2281C86.0991 27.2556 86.0633 27.2763 86.0244 27.289C85.9856 27.3017 85.9445 27.306 85.9038 27.3017H77.7636C77.9002 28.1273 78.2176 28.7698 78.7157 29.2292C79.2138 29.6885 79.8524 29.9182 80.6316 29.9182C81.8235 29.9182 82.6957 29.4666 83.2481 28.5634C83.2851 28.497 83.3451 28.4463 83.4169 28.4212C83.4887 28.396 83.5672 28.398 83.6376 28.4268L85.6799 29.1376C85.8791 29.2146 85.9329 29.344 85.8413 29.5272C85.3833 30.4878 84.6374 31.2819 83.7074 31.7992C82.7552 32.3109 81.6877 32.5701 80.6069 32.5521C79.3829 32.5521 78.316 32.2939 77.406 31.7773ZM83.0387 25.0777C82.9011 24.3741 82.6182 23.8276 82.1898 23.438C81.7493 23.0445 81.1739 22.8362 80.5836 22.8566C79.941 22.8349 79.3114 23.0408 78.8058 23.438C78.3026 23.8606 77.9518 24.4366 77.8072 25.0777H83.0387Z" fill="#C2C2C2"/>
<path d="M95.0381 31.5143C93.9673 30.7526 93.2109 29.6473 92.769 28.1986C92.7522 28.1627 92.7443 28.1233 92.7458 28.0837C92.7458 27.9616 92.8228 27.8773 92.9754 27.8308L95.3608 27.2581L95.4538 27.2348C95.5195 27.2342 95.5831 27.257 95.6335 27.2991C95.6838 27.3412 95.7175 27.3998 95.7286 27.4645C96.0338 28.2126 96.4433 28.7592 96.9569 29.1042C97.4705 29.4492 98.1546 29.6217 99.0094 29.6217C99.867 29.6217 100.536 29.4763 101.017 29.1856C101.497 28.8949 101.74 28.4433 101.744 27.8308C101.749 27.5559 101.69 27.2835 101.573 27.0349C101.455 26.7863 101.282 26.5681 101.066 26.3976C100.615 26.0225 99.9227 25.6669 98.9905 25.3306L97.4976 24.803C94.6224 23.8232 93.1848 22.1865 93.1848 19.8927C93.1746 19.024 93.4358 18.1739 93.9319 17.4608C94.447 16.7262 95.1498 16.1434 95.967 15.7732C96.8657 15.3594 97.8456 15.1518 98.8349 15.1656C100.272 15.1656 101.492 15.5047 102.495 16.1831C103.498 16.8614 104.206 17.8901 104.617 19.2691C104.633 19.3053 104.641 19.3445 104.639 19.3839C104.639 19.506 104.564 19.5903 104.411 19.6354L101.886 20.2779L101.794 20.3011C101.729 20.302 101.665 20.2793 101.615 20.2372C101.564 20.1951 101.531 20.1363 101.52 20.0715C101.244 19.3989 100.892 18.9173 100.464 18.6266C99.9779 18.3197 99.4097 18.1677 98.8349 18.1905C98.1013 18.1905 97.5122 18.3359 97.0674 18.6266C96.8642 18.7449 96.6958 18.9147 96.5791 19.1189C96.4625 19.323 96.4018 19.5544 96.4031 19.7895C96.4049 20.05 96.4669 20.3067 96.5841 20.5394C96.7013 20.7721 96.8707 20.9746 97.079 21.1312C97.5306 21.5062 98.2535 21.8618 99.2478 22.1981L100.441 22.5877C102 23.1081 103.144 23.7699 103.872 24.5733C104.599 25.3766 104.963 26.4586 104.962 27.8192C104.972 28.7038 104.707 29.5698 104.205 30.2976C103.672 31.0543 102.941 31.6497 102.092 32.0187C101.125 32.4451 100.076 32.6564 99.0181 32.6379C97.4346 32.6457 96.108 32.2711 95.0381 31.5143Z" fill="#C2C2C2"/>
<path d="M108.954 31.3412C108.275 30.532 107.936 29.3313 107.936 27.7392V23.1036H106.192C106.151 23.1095 106.11 23.1057 106.071 23.0927C106.032 23.0798 105.996 23.0579 105.967 23.0288C105.938 22.9997 105.916 22.9643 105.903 22.9253C105.89 22.8863 105.886 22.8449 105.892 22.8042V20.7401C105.887 20.6995 105.891 20.6582 105.904 20.6194C105.917 20.5806 105.939 20.5453 105.968 20.5164C105.997 20.4876 106.032 20.4658 106.071 20.4529C106.11 20.44 106.151 20.4363 106.192 20.4421H107.936V17.2543C107.93 17.2138 107.934 17.1724 107.947 17.1336C107.96 17.0947 107.982 17.0594 108.01 17.0303C108.039 17.0013 108.075 16.9794 108.113 16.9663C108.152 16.9532 108.194 16.9493 108.234 16.9549H110.621C110.661 16.9493 110.703 16.9532 110.742 16.9663C110.78 16.9794 110.816 17.0013 110.845 17.0303C110.873 17.0594 110.895 17.0947 110.908 17.1336C110.921 17.1724 110.925 17.2138 110.919 17.2543V20.4435H113.742C113.782 20.4389 113.822 20.4435 113.86 20.457C113.898 20.4704 113.932 20.4924 113.96 20.5212C113.988 20.5499 114.009 20.5847 114.022 20.6229C114.035 20.6611 114.038 20.7017 114.033 20.7415V22.8129C114.038 22.8528 114.034 22.8934 114.022 22.9316C114.009 22.9699 113.988 23.0047 113.96 23.0336C113.932 23.0625 113.898 23.0846 113.86 23.0982C113.822 23.1119 113.782 23.1167 113.742 23.1123H110.915V27.9296C110.915 28.5721 111.022 29.0566 111.236 29.3832C111.451 29.7044 111.787 29.8643 112.253 29.8643C112.635 29.8643 112.933 29.6734 113.147 29.2916C113.255 29.107 113.393 29.0619 113.562 29.1463L115.351 29.9501C115.401 29.9693 115.444 30.0041 115.472 30.0494C115.501 30.0947 115.515 30.148 115.511 30.2016C115.505 30.2822 115.482 30.3606 115.443 30.4312C115.102 31.1041 114.577 31.6655 113.928 32.0491C113.319 32.3925 112.631 32.5704 111.932 32.5651C110.627 32.5564 109.634 32.1484 108.954 31.3412Z" fill="#C2C2C2"/>
<path d="M119.175 31.7657C118.248 31.2595 117.483 30.4997 116.972 29.5751C116.46 28.59 116.192 27.4961 116.192 26.3859C116.192 25.2757 116.46 24.1818 116.972 23.1967C117.483 22.2716 118.248 21.5113 119.175 21.0046C120.123 20.4775 121.224 20.2139 122.479 20.2139C123.734 20.2139 124.836 20.4775 125.783 21.0046C126.71 21.5118 127.474 22.272 127.986 23.1967C128.498 24.1815 128.766 25.2755 128.766 26.3859C128.766 27.4963 128.498 28.5903 127.986 29.5751C127.474 30.4993 126.71 31.259 125.783 31.7657C124.76 32.2865 123.628 32.558 122.479 32.558C121.331 32.558 120.199 32.2865 119.175 31.7657ZM124.796 28.8861C125.392 28.2436 125.691 27.4102 125.692 26.3859C125.693 25.3616 125.394 24.5277 124.796 23.8842C124.199 23.2417 123.427 22.9205 122.479 22.9205C121.532 22.9205 120.756 23.2417 120.154 23.8842C119.558 24.5267 119.26 25.3606 119.26 26.3859C119.26 27.4112 119.558 28.2446 120.154 28.8861C120.75 29.5286 121.526 29.8498 122.479 29.8498C123.433 29.8498 124.205 29.5286 124.796 28.8861Z" fill="#C2C2C2"/>
<path d="M131.496 32.3282C131.456 32.334 131.414 32.3304 131.375 32.3175C131.337 32.3046 131.301 32.2828 131.272 32.2538C131.243 32.2249 131.222 32.1896 131.209 32.1508C131.196 32.112 131.192 32.0707 131.198 32.0302V20.7415C131.192 20.701 131.196 20.6597 131.209 20.6209C131.222 20.5821 131.243 20.5468 131.272 20.5179C131.301 20.489 131.337 20.4672 131.375 20.4543C131.414 20.4414 131.456 20.4377 131.496 20.4435H133.653C133.867 20.4435 133.974 20.5424 133.974 20.7415L134.043 22.2329C134.424 21.6204 134.963 21.121 135.602 20.7866C136.239 20.452 136.949 20.2788 137.668 20.2822C137.937 20.2788 138.206 20.3022 138.47 20.3519C138.545 20.3647 138.611 20.4044 138.658 20.4634C138.705 20.5224 138.728 20.5966 138.723 20.6717V23.0353C138.728 23.0697 138.725 23.1047 138.714 23.1375C138.703 23.1704 138.684 23.2003 138.66 23.2249C138.635 23.2494 138.606 23.2679 138.573 23.2789C138.54 23.2899 138.505 23.2931 138.47 23.2882C138.283 23.2859 138.095 23.2704 137.909 23.2417C137.708 23.2129 137.504 23.1978 137.3 23.1967C136.767 23.1925 136.241 23.314 135.764 23.5513C135.292 23.7866 134.895 24.1485 134.617 24.5965C134.322 25.0709 134.17 25.6207 134.181 26.1794V32.0302C134.187 32.0707 134.183 32.112 134.17 32.1508C134.157 32.1896 134.135 32.2249 134.106 32.2538C134.078 32.2828 134.042 32.3046 134.003 32.3175C133.965 32.3304 133.923 32.334 133.883 32.3282H131.496Z" fill="#C2C2C2"/>
<path d="M142.635 31.7773C141.737 31.2707 141.01 30.5081 140.548 29.5868C140.073 28.5875 139.827 27.4951 139.827 26.3888C139.827 25.2825 140.073 24.1901 140.548 23.1909C141.011 22.2694 141.737 21.5064 142.635 20.9989C143.545 20.4794 144.611 20.2197 145.833 20.2197C147.027 20.2197 148.056 20.4988 148.919 21.057C149.795 21.6296 150.472 22.4593 150.858 23.4322C151.286 24.4565 151.485 25.6494 151.454 27.011C151.454 27.0517 151.446 27.0921 151.43 27.1294C151.413 27.1667 151.389 27.2001 151.359 27.2275C151.329 27.255 151.293 27.2757 151.254 27.2885C151.216 27.3013 151.175 27.3058 151.134 27.3017H142.994C143.133 28.1273 143.45 28.7698 143.946 29.2292C144.442 29.6885 145.081 29.9182 145.862 29.9182C147.056 29.9182 147.928 29.4666 148.479 28.5634C148.516 28.497 148.576 28.4463 148.647 28.4212C148.719 28.396 148.798 28.398 148.868 28.4268L150.903 29.1376C151.101 29.2146 151.155 29.344 151.063 29.5272C150.605 30.488 149.859 31.2823 148.929 31.7992C147.978 32.3122 146.912 32.573 145.832 32.5565C144.61 32.5536 143.545 32.2939 142.635 31.7773ZM148.269 25.0777C148.131 24.3741 147.847 23.8276 147.419 23.438C146.98 23.0457 146.408 22.8375 145.82 22.8566C145.177 22.8348 144.547 23.0407 144.041 23.438C143.538 23.8612 143.188 24.437 143.043 25.0777H148.269Z" fill="#C2C2C2"/>
<path d="M91.3096 26.271H88.4766L89.372 23.4481H92.2051L91.3096 26.271Z" fill="#C2C2C2"/>
<path d="M89.7955 7.44244C89.6126 7.3644 89.4466 7.25131 89.3071 7.10956C89.1931 6.99647 89.104 6.86081 89.0455 6.71128V7.49622H88.7998V2.72839H89.0455V5.00038C89.1037 4.85112 89.1929 4.71588 89.3071 4.60355C89.4466 4.46133 89.6125 4.34776 89.7955 4.26922C90.0037 4.17725 90.2293 4.13115 90.4569 4.13403C90.7441 4.13043 91.0264 4.20857 91.2709 4.35934C91.5141 4.51064 91.7115 4.72519 91.8422 4.98003C91.9788 5.25175 92.05 5.55168 92.05 5.85583C92.05 6.15998 91.9788 6.4599 91.8422 6.73162C91.7115 6.98647 91.5141 7.20101 91.2709 7.35232C91.0264 7.50309 90.7441 7.58123 90.4569 7.57762C90.2293 7.58051 90.0037 7.5344 89.7955 7.44244ZM91.1546 7.15172C91.3611 7.0208 91.5272 6.83511 91.6343 6.61534C91.7463 6.37728 91.8043 6.11745 91.8043 5.85437C91.8043 5.5913 91.7463 5.33147 91.6343 5.09341C91.5259 4.87039 91.3556 4.68328 91.1437 4.5544C90.9318 4.42553 90.6874 4.36034 90.4395 4.36661C90.1874 4.36228 89.9393 4.42896 89.7233 4.55903C89.5074 4.6891 89.3324 4.87731 89.2184 5.10213C89.1009 5.33753 89.0396 5.59706 89.0396 5.86019C89.0396 6.12332 89.1009 6.38285 89.2184 6.61824C89.3324 6.84307 89.5074 7.03128 89.7233 7.16135C89.9393 7.29142 90.1874 7.3581 90.4395 7.35377C90.6912 7.35684 90.9386 7.28719 91.1517 7.15317L91.1546 7.15172Z" fill="#9E9E9E"/>
<path d="M95.693 4.21692L93.5024 8.91352H93.2393L93.924 7.44828L92.4253 4.21692H92.6942L94.0591 7.16774L95.4299 4.21692H95.693Z" fill="#9E9E9E"/>
<path d="M132.079 6.70105C132.057 6.41366 132.084 6.12451 132.159 5.84633C132.239 5.48825 132.366 5.14223 132.536 4.81718C132.817 4.31326 133.171 4.06179 133.597 4.06275C134.024 4.06275 134.258 4.30405 134.303 4.78229C134.323 5.08273 134.293 5.38437 134.213 5.6748C134.077 6.24171 133.878 6.66713 133.619 6.95107C133.359 7.23501 133.085 7.37649 132.796 7.37552C132.37 7.37455 132.131 7.14973 132.079 6.70105ZM131.271 9.59227L131.808 7.37697C131.867 7.53287 131.958 7.67521 132.074 7.79561C132.252 7.94824 132.483 8.02585 132.717 8.0122C133.09 8.00516 133.449 7.87076 133.735 7.63135C134.252 7.22725 134.626 6.55278 134.854 5.60794C135.023 4.90827 135.007 4.36995 134.808 3.99298C134.727 3.81812 134.596 3.67094 134.432 3.56966C134.268 3.46837 134.077 3.41744 133.885 3.42316C133.602 3.42352 133.326 3.50748 133.091 3.66446C132.898 3.78989 132.724 3.94321 132.575 4.11944L132.72 3.54527H132.12L130.659 9.585L131.271 9.59227Z" fill="#9E9E9E"/>
<path d="M135.033 7.87414L136.48 1.90417H137.096L136.559 4.12383C136.709 3.95022 136.879 3.79548 137.065 3.66304C137.304 3.50937 137.583 3.42994 137.866 3.43482C138.4 3.43482 138.708 3.65868 138.791 4.09912C138.829 4.43544 138.799 4.77599 138.704 5.10065L138.029 7.88286H137.395L138.057 5.14862C138.126 4.92205 138.149 4.68365 138.124 4.44799C138.068 4.20959 137.887 4.08991 137.578 4.08894C137.293 4.09988 137.019 4.20927 136.805 4.39856C136.546 4.60691 136.347 4.99939 136.208 5.57598L135.651 7.87704L135.033 7.87414Z" fill="#9E9E9E"/>
<path d="M140.125 6.12834C140.295 6.04148 140.48 5.98632 140.67 5.96554L141.058 5.9103C141.183 5.89306 141.307 5.86634 141.427 5.83035C141.543 5.79738 141.653 5.74845 141.754 5.68499L141.609 6.26644C141.566 6.47407 141.476 6.66911 141.346 6.83665C141.216 7.00418 141.049 7.13978 140.859 7.23308C140.651 7.34453 140.42 7.40482 140.185 7.40897C140.105 7.41223 140.026 7.39729 139.954 7.36529C139.881 7.33329 139.817 7.28508 139.766 7.22436C139.714 7.15359 139.68 7.07124 139.667 6.98439C139.653 6.89754 139.662 6.80878 139.69 6.72577C139.718 6.60156 139.77 6.48435 139.845 6.38152C139.92 6.27869 140.015 6.19249 140.125 6.12834ZM139.59 5.81582C139.311 6.05845 139.119 6.38646 139.045 6.74903C138.997 6.90078 138.981 7.06092 138.999 7.21913C139.016 7.37735 139.067 7.53015 139.147 7.66771C139.227 7.79025 139.339 7.88918 139.47 7.95432C139.601 8.01947 139.748 8.04848 139.894 8.03838C140.184 8.03737 140.469 7.96445 140.724 7.82615C140.974 7.69903 141.2 7.52821 141.39 7.32175C141.366 7.45478 141.369 7.59106 141.398 7.72295C141.422 7.80793 141.475 7.88175 141.548 7.93107C141.621 7.98039 141.709 8.00196 141.797 7.99186C141.867 7.99339 141.937 7.9895 142.006 7.98023C142.086 7.96595 142.164 7.94604 142.241 7.92063L142.371 7.38135C142.33 7.39007 142.292 7.39588 142.257 7.40025C142.223 7.40461 142.191 7.40025 142.163 7.40025C142.079 7.40025 142.028 7.37699 142.018 7.33047C142 7.27065 142 7.20714 142.018 7.14732L142.622 4.64857C142.723 4.23865 142.662 3.93485 142.441 3.74007C142.22 3.54528 141.891 3.44935 141.458 3.44935C141.082 3.44845 140.714 3.55595 140.398 3.75897C140.066 3.96828 139.829 4.33992 139.687 4.87388H140.269C140.325 4.68924 140.417 4.51739 140.539 4.36802C140.636 4.26444 140.755 4.18332 140.886 4.13033C141.018 4.07735 141.159 4.05379 141.301 4.06131C141.516 4.04282 141.731 4.10384 141.904 4.23284C142.026 4.34477 142.058 4.52356 141.997 4.77358C141.978 4.87229 141.941 4.96677 141.888 5.05267C141.852 5.11088 141.803 5.16002 141.745 5.1963C141.686 5.23258 141.621 5.25506 141.552 5.26199L140.535 5.40735C140.188 5.45109 139.86 5.59276 139.59 5.81582Z" fill="#9E9E9E"/>
<path d="M142.865 7.90177L143.916 3.56421H144.498L144.316 4.31282C144.449 4.11224 144.612 3.9333 144.8 3.78225C144.995 3.59098 145.254 3.4795 145.527 3.46973H145.583L145.729 3.48717L145.541 4.25613C145.509 4.2482 145.477 4.24286 145.444 4.24014C145.415 4.24014 145.381 4.24014 145.344 4.24014C145.193 4.23836 145.043 4.26882 144.904 4.32948C144.766 4.39014 144.642 4.4796 144.541 4.59191C144.321 4.81845 144.167 5.1002 144.094 5.40739L143.482 7.90468L142.865 7.90177Z" fill="#9E9E9E"/>
<path d="M145.187 7.91052L146.237 3.57296H146.848L146.703 4.18783C146.856 4.01533 147.027 3.85986 147.213 3.72413C147.433 3.56784 147.696 3.48217 147.966 3.47847C148.086 3.46879 148.207 3.48711 148.319 3.53201C148.431 3.5769 148.531 3.64714 148.611 3.73721C148.702 3.86691 148.76 4.01644 148.781 4.17329C148.948 3.96328 149.155 3.78841 149.39 3.65872C149.595 3.54912 149.824 3.4917 150.056 3.49155C150.55 3.49155 150.835 3.70523 150.912 4.12823C150.948 4.43509 150.922 4.74597 150.835 5.04255L150.136 7.93086H149.494L150.22 4.91754C150.29 4.62682 150.277 4.42913 150.181 4.32156C150.129 4.26608 150.066 4.22262 149.995 4.19425C149.925 4.16588 149.849 4.15327 149.773 4.15731C149.513 4.16441 149.264 4.26804 149.076 4.44803C148.855 4.6399 148.69 4.9597 148.582 5.40741L147.97 7.93086H147.342L148.028 5.10069C148.092 4.89198 148.115 4.67263 148.094 4.45529C148.05 4.25324 147.9 4.15149 147.643 4.15003C147.374 4.16498 147.12 4.27828 146.929 4.46837C146.687 4.6806 146.493 5.06726 146.362 5.63126L145.807 7.91342L145.187 7.91052Z" fill="#9E9E9E"/>
<path d="M150.719 7.84073L150.889 7.13428H151.471L151.299 7.84073H150.719Z" fill="#9E9E9E"/>
<path d="M101.818 5.91903H100.544L101.683 3.69501L101.818 5.91903ZM99.4373 8.05728L100.043 6.89439H101.894L101.961 8.05728H103.1L102.571 2.40857H101.385L98.3398 8.06019L99.4373 8.05728Z" fill="#9E9E9E"/>
<path d="M106.659 3.77063C106.866 3.76555 107.07 3.81148 107.255 3.90437C107.422 3.9942 107.554 4.13895 107.627 4.31428C107.694 4.46543 107.721 4.63088 107.707 4.79542C107.674 5.06695 107.626 5.33633 107.562 5.60218L107.018 8.05587H106.025L106.589 5.51496C106.639 5.33786 106.645 5.15144 106.608 4.97131C106.563 4.77653 106.415 4.68059 106.172 4.68059C106.049 4.67895 105.928 4.70411 105.816 4.75432C105.704 4.80454 105.604 4.87859 105.524 4.97131C105.327 5.20887 105.195 5.49328 105.14 5.79696L104.64 8.06023H103.67L104.919 2.42896H105.887L105.444 4.42621C105.603 4.21277 105.81 4.03873 106.047 3.91745C106.238 3.82507 106.447 3.77499 106.659 3.77063Z" fill="#9E9E9E"/>
<path d="M110.934 3.77056C111.095 3.75783 111.257 3.78152 111.408 3.83989C111.559 3.89827 111.695 3.98983 111.806 4.1078C112 4.33456 112.039 4.70959 111.924 5.23289L111.3 8.04707H110.304L110.867 5.50616C110.913 5.3417 110.925 5.16942 110.9 5.00031C110.852 4.78517 110.695 4.67906 110.427 4.67906C110.265 4.67867 110.107 4.7225 109.969 4.80579C109.831 4.88908 109.718 5.00865 109.643 5.15148C109.531 5.34954 109.451 5.56457 109.408 5.78816L108.906 8.04852H107.938L108.861 3.87812H109.799L109.665 4.48864C109.796 4.31412 109.949 4.15771 110.121 4.02349C110.359 3.85538 110.643 3.76683 110.934 3.77056Z" fill="#9E9E9E"/>
<path d="M117.936 6.9148C117.832 6.6861 117.827 6.36291 117.921 5.94524C117.981 5.58997 118.131 5.25606 118.357 4.97569C118.447 4.86985 118.558 4.78472 118.683 4.72624C118.809 4.66775 118.946 4.63729 119.084 4.637C119.204 4.62609 119.324 4.65268 119.429 4.71308C119.533 4.77349 119.616 4.86474 119.666 4.97423C119.763 5.201 119.767 5.5237 119.679 5.94233C119.618 6.29785 119.468 6.63208 119.243 6.91334C119.154 7.02009 119.043 7.10603 118.917 7.16507C118.792 7.2241 118.655 7.25478 118.516 7.25494C118.396 7.2653 118.276 7.23813 118.172 7.1772C118.068 7.11627 117.985 7.02458 117.936 6.9148ZM120.587 4.37389C120.372 3.93781 119.943 3.71105 119.305 3.7125C119.01 3.70412 118.717 3.75908 118.445 3.87367C118.173 3.98827 117.929 4.15984 117.729 4.3768C117.32 4.81576 117.037 5.35791 116.911 5.94524C116.774 6.55866 116.817 7.08342 117.033 7.51804C117.25 7.95267 117.679 8.17071 118.318 8.17071C118.612 8.17931 118.904 8.1253 119.175 8.01227C119.446 7.89923 119.69 7.72977 119.891 7.51514C120.303 7.07516 120.587 6.53069 120.711 5.94088C120.845 5.33909 120.803 4.81676 120.587 4.37389Z" fill="#9E9E9E"/>
<path d="M122.202 6.90898C122.1 6.68222 122.095 6.35904 122.188 5.93943C122.251 5.58404 122.404 5.25075 122.633 4.97133C122.722 4.86552 122.833 4.78033 122.959 4.72162C123.084 4.6629 123.221 4.63205 123.36 4.63119C123.48 4.6204 123.6 4.64719 123.704 4.70787C123.808 4.76855 123.891 4.86011 123.941 4.96987C124.038 5.19664 124.042 5.51934 123.954 5.93798C123.894 6.29298 123.743 6.62668 123.518 6.90753C123.429 7.01432 123.318 7.10037 123.193 7.15964C123.067 7.21891 122.93 7.24995 122.791 7.25058C122.67 7.26272 122.547 7.23624 122.442 7.17493C122.336 7.11361 122.252 7.02056 122.202 6.90898ZM124.854 4.36954C124.639 3.92764 124.211 3.70718 123.572 3.70815C123.277 3.69957 122.984 3.75444 122.712 3.86905C122.44 3.98366 122.196 4.15533 121.996 4.37245C121.586 4.81158 121.304 5.35365 121.178 5.94088C121.043 6.5543 121.084 7.07857 121.3 7.51369C121.516 7.9488 121.944 8.16635 122.585 8.16635C122.878 8.17505 123.171 8.12108 123.442 8.00804C123.713 7.895 123.957 7.72549 124.158 7.51078C124.571 7.07154 124.854 6.52676 124.977 5.93652C125.111 5.33376 125.07 4.81143 124.854 4.36954Z" fill="#9E9E9E"/>
<path d="M125.203 8.01799L126.45 2.38672H127.405L126.73 5.43057L128.29 3.85777H129.494L127.839 5.45673L128.623 8.01508H127.45L126.956 6.23005L126.448 6.70102L126.158 8.00927L125.203 8.01799Z" fill="#9E9E9E"/>
<path d="M115.177 3.83601C115.291 3.8992 115.39 3.98597 115.467 4.09052C115.545 4.19506 115.599 4.31495 115.626 4.44216L115.761 3.83456H116.735L115.863 7.80726C115.786 8.24991 115.607 8.66849 115.34 9.02974C114.952 9.50071 114.357 9.73668 113.553 9.73765C113.066 9.73765 112.694 9.63153 112.434 9.42222C112.174 9.2129 112.074 8.89746 112.132 8.48028H113.215C113.206 8.57821 113.232 8.67606 113.289 8.75646C113.373 8.85676 113.54 8.90182 113.792 8.90182C113.948 8.91113 114.103 8.87971 114.243 8.81063C114.383 8.74156 114.502 8.63722 114.59 8.5079C114.743 8.24596 114.848 7.95834 114.899 7.65899L114.959 7.39298C114.848 7.54539 114.714 7.67974 114.562 7.79127C114.322 7.95771 114.036 8.04372 113.744 8.03693C113.258 8.03693 112.911 7.84796 112.704 7.47147C112.498 7.09499 112.466 6.58332 112.61 5.93792C112.727 5.35764 112.992 4.8174 113.379 4.36948C113.54 4.17191 113.743 4.01249 113.973 3.90267C114.204 3.79284 114.455 3.73533 114.71 3.73426C114.872 3.73176 115.031 3.76659 115.177 3.83601ZM114.837 6.84643C115.068 6.58545 115.219 6.26355 115.273 5.91903C115.361 5.52074 115.354 5.2179 115.251 5.01052C115.204 4.91066 115.128 4.82736 115.033 4.77158C114.938 4.71579 114.828 4.69014 114.718 4.698C114.373 4.698 114.096 4.87921 113.886 5.24164C113.763 5.46416 113.674 5.7044 113.623 5.95391C113.57 6.1668 113.558 6.38769 113.587 6.60513C113.642 6.95835 113.84 7.13569 114.183 7.13569C114.306 7.13334 114.427 7.10654 114.539 7.05688C114.651 7.00721 114.753 6.93567 114.837 6.84643Z" fill="#9E9E9E"/>
</g>
<defs>
<clipPath id="clip0_4_616">
<rect width="155.406" height="36" fill="white"/>
</clipPath>
</defs>
</svg>
